<?xml version="1.0" encoding="UTF-8" standalone="no"?>
<!-- Created with Inkscape (http://www.inkscape.org/) -->

<svg
   version="1.1"
   id="svg6829"
   width="5733.3335"
   height="3200"
   viewBox="0 0 5733.3335 3200"
   sodipodi:docname="background.svg"
   inkscape:version="1.2.2 (732a01da63, 2022-12-09)"
   xmlns:inkscape="http://www.inkscape.org/namespaces/inkscape"
   xmlns:sodipodi="http://sodipodi.sourceforge.net/DTD/sodipodi-0.dtd"
   xmlns="http://www.w3.org/2000/svg"
   xmlns:svg="http://www.w3.org/2000/svg">
  <defs
     id="defs6833">
    <linearGradient
       x1="0"
       y1="0"
       x2="1"
       y2="0"
       gradientUnits="userSpaceOnUse"
       gradientTransform="matrix(0,22127.7,22127.7,0,21500,225.801)"
       spreadMethod="pad"
       id="linearGradient6849">
      <stop
         style="stop-opacity:1;stop-color:#ffffff"
         offset="0"
         id="stop6841" />
      <stop
         style="stop-opacity:1;stop-color:#ffffff"
         offset="0.217877"
         id="stop6843" />
      <stop
         style="stop-opacity:1;stop-color:#55b8eb"
         offset="0.837989"
         id="stop6845" />
      <stop
         style="stop-opacity:1;stop-color:#55b8eb"
         offset="1"
         id="stop6847" />
    </linearGradient>
    <clipPath
       clipPathUnits="userSpaceOnUse"
       id="clipPath6859">
      <path
         d="m 0.0429688,4695 c 0,0 3814.8770312,728.8 4496.6270312,728.8 681.74,0 1415.93,-260.2 1678.14,-364.3 262.21,-104.2 1153.73,1041.1 1887.91,1041.1 734.19,0 2254.98,-728.8 3146.58,-702.8 891.5,26 5731.4,1743.9 6929.9,1900.1 1198.6,156.2 1618.1,468.5 1932.8,572.6 314.6,104.1 1992.8,-156.1 3880.7,-1249.3 1887.9,-1093.2 1730.6,-239.2 3618.5,-327.9 1887.9,-88.6 2453.3,-505.1 4242.1,-765.3 1788.7,-260.3 1998.5,-156.2 4410.8,-104.2 2412.4,52.1 2569.7,-156.1 3828.3,-364.3 1258.6,-208.3 2874.8,624.6 2874.8,624.6 l 72.7,63.7 V 3512.9 H 0.0429688 Z"
         id="path6857" />
    </clipPath>
    <linearGradient
       x1="0"
       y1="0"
       x2="1"
       y2="0"
       gradientUnits="userSpaceOnUse"
       gradientTransform="matrix(42999.9,0,0,-42999.9,0.0437039,5702.3)"
       spreadMethod="pad"
       id="linearGradient6865">
      <stop
         style="stop-opacity:1;stop-color:#2c953f"
         offset="0"
         id="stop6861" />
      <stop
         style="stop-opacity:1;stop-color:#154232"
         offset="1"
         id="stop6863" />
    </linearGradient>
    <clipPath
       clipPathUnits="userSpaceOnUse"
       id="clipPath6875">
      <path
         d="M 43000,4695.1 V 3512.9 l -21597.1,-138.4 -4641.9,-29.7 -150.2,-1 -6003.6,-38.5 L 0,3237.4 v 2238.5 c 0,0 2136.79,-327.5 3500.23,-1145.3 1363.56,-817.7 3513.67,156.2 4929.61,572.7 1415.95,416.4 2150.16,572.6 3461.16,1197.3 1311.1,624.7 2150.1,1197.3 2674.5,1197.3 524.1,0 1339.1,-403.9 1471.5,-364.9 0.1,0.2 0.2,0.2 0.2,0.2 131.7,39.4 402.1,263.5 926.5,419.8 28,8.2 57.9,14.5 89.6,18.7 561.3,75.1 1676.5,-471.4 2585,-823.4 1261.9,-488.9 1597,-637.5 1861.8,-611.3 166.5,16.5 305.3,102.1 629.2,215.6 839.1,294.3 1980.7,520.6 2452.7,676.8 67.6,22.4 152.4,28.3 251.7,20.4 593.7,-47.8 1704,-596.9 2737.5,-1147.6 1206.1,-642.8 4562.4,242.2 5191.7,398.4 629.3,156.1 3146.5,-728.8 4247.8,-1041.2 1101.4,-312.3 5989.3,-364.3 5989.3,-364.3 z"
         id="path6873" />
    </clipPath>
    <linearGradient
       x1="0"
       y1="0"
       x2="1"
       y2="0"
       gradientUnits="userSpaceOnUse"
       gradientTransform="matrix(43000,0,0,-43000,0,5308)"
       spreadMethod="pad"
       id="linearGradient6881">
      <stop
         style="stop-opacity:1;stop-color:#60af32"
         offset="0"
         id="stop6877" />
      <stop
         style="stop-opacity:1;stop-color:#20612e"
         offset="1"
         id="stop6879" />
    </linearGradient>
    <clipPath
       clipPathUnits="userSpaceOnUse"
       id="clipPath6891">
      <path
         d="m 16761,3344.8 -6153.8,-39.5 c -193.5,120.4 -2036.58,-47 -1772.03,40.3 3233.93,1066.5 7170.43,3570.2 7201.83,3587.4 0.1,0.2 0.2,0.2 0.2,0.2 131.7,39.4 402.1,263.5 926.5,419.8 28,8.2 57.9,14.5 89.6,18.7 -623.2,-1048 -452.6,-2963.4 -292.3,-4026.9 z"
         id="path6889" />
    </clipPath>
    <linearGradient
       x1="0"
       y1="0"
       x2="1"
       y2="0"
       gradientUnits="userSpaceOnUse"
       gradientTransform="matrix(15718.5,-9292.39,-9292.39,-15718.5,3711.01,10801.4)"
       spreadMethod="pad"
       id="linearGradient6897">
      <stop
         style="stop-opacity:1;stop-color:#bee029"
         offset="0"
         id="stop6893" />
      <stop
         style="stop-opacity:1;stop-color:#48ab39"
         offset="1"
         id="stop6895" />
    </linearGradient>
    <clipPath
       clipPathUnits="userSpaceOnUse"
       id="clipPath6907">
      <path
         d="m 42999.9,5197.5 c 0,0 -11809.5,-1126.2 -17211,-2687.9 7341.9,0 17211,-747.5 17211,-747.5 z"
         id="path6905" />
    </clipPath>
    <linearGradient
       x1="0"
       y1="0"
       x2="1"
       y2="0"
       gradientUnits="userSpaceOnUse"
       gradientTransform="matrix(17211.1,0,0,-17211.1,25788.9,3479.8)"
       spreadMethod="pad"
       id="linearGradient6913">
      <stop
         style="stop-opacity:1;stop-color:#bee029"
         offset="0"
         id="stop6909" />
      <stop
         style="stop-opacity:1;stop-color:#48ab39"
         offset="1"
         id="stop6911" />
    </linearGradient>
    <clipPath
       clipPathUnits="userSpaceOnUse"
       id="clipPath6923">
      <path
         d="M 24833.7,6849.8 C 23248.4,5893.3 22092.5,4430.7 21402.9,3374.5 l -4641.9,-29.7 -150.2,-1 c 1952.1,1153.6 2505.8,1310.8 4174.6,2203.1 360.1,192.6 730.4,365.8 1109.8,517.5 66.6,26.6 143,56.3 234.1,88.2 839.1,294.3 1980.7,520.6 2452.7,676.8 67.6,22.4 152.4,28.3 251.7,20.4 z"
         id="path6921" />
    </clipPath>
    <linearGradient
       x1="0"
       y1="0"
       x2="1"
       y2="0"
       gradientUnits="userSpaceOnUse"
       gradientTransform="matrix(15757.7,-9315.56,-9315.56,-15757.7,5585.52,14045.2)"
       spreadMethod="pad"
       id="linearGradient6929">
      <stop
         style="stop-opacity:1;stop-color:#bee029"
         offset="0"
         id="stop6925" />
      <stop
         style="stop-opacity:1;stop-color:#48ab39"
         offset="1"
         id="stop6927" />
    </linearGradient>
    <clipPath
       clipPathUnits="userSpaceOnUse"
       id="clipPath6939">
      <path
         d="M 0.0429688,3948.1 C 0.0429688,3948.1 19731.3,4576.9 28056.4,2440.5 9740.87,2440.5 0.0429688,2755.2 0.0429688,2755.2 Z"
         id="path6937" />
    </clipPath>
    <linearGradient
       x1="0"
       y1="0"
       x2="1"
       y2="0"
       gradientUnits="userSpaceOnUse"
       gradientTransform="matrix(-322.443,-5527.6,-5527.6,322.443,14223.9,6549.1)"
       spreadMethod="pad"
       id="linearGradient6945">
      <stop
         style="stop-opacity:1;stop-color:#bee029"
         offset="0"
         id="stop6941" />
      <stop
         style="stop-opacity:1;stop-color:#48ab39"
         offset="1"
         id="stop6943" />
    </linearGradient>
    <clipPath
       clipPathUnits="userSpaceOnUse"
       id="clipPath6955">
      <path
         d="m 40295.2,1473.7 c 0,0 -8318.9,3628.4 -23160,1281.5 13856.8,-1281.5 23160,-1281.5 23160,-1281.5 z"
         id="path6953" />
    </clipPath>
    <linearGradient
       x1="0"
       y1="0"
       x2="1"
       y2="0"
       gradientUnits="userSpaceOnUse"
       gradientTransform="matrix(-600.271,-4663.64,-4663.64,600.271,29110.7,5187.3)"
       spreadMethod="pad"
       id="linearGradient6961">
      <stop
         style="stop-opacity:1;stop-color:#bee029"
         offset="0"
         id="stop6957" />
      <stop
         style="stop-opacity:1;stop-color:#48ab39"
         offset="1"
         id="stop6959" />
    </linearGradient>
    <clipPath
       clipPathUnits="userSpaceOnUse"
       id="clipPath6971">
      <path
         d="m 42999.9,2416 c 0,0 -26756.2,-808.3 -32629.7,-346.4 C 4496.67,2531.5 0.0429688,4090.6 0.0429688,4090.6 V 0 H 42999.9 Z"
         id="path6969" />
    </clipPath>
    <linearGradient
       x1="0"
       y1="0"
       x2="1"
       y2="0"
       gradientUnits="userSpaceOnUse"
       gradientTransform="matrix(-276.436,-4238.69,-4238.69,276.436,21623.9,3945.6)"
       spreadMethod="pad"
       id="linearGradient6977">
      <stop
         style="stop-opacity:1;stop-color:#bee029"
         offset="0"
         id="stop6973" />
      <stop
         style="stop-opacity:1;stop-color:#48ab39"
         offset="1"
         id="stop6975" />
    </linearGradient>
    <clipPath
       clipPathUnits="userSpaceOnUse"
       id="clipPath6987">
      <path
         d="M 0.0429688,0 V 2334.3 C 0.0429688,2334.3 16483.4,3903.1 29616.4,2022 41397.2,334.602 42999.9,0 42999.9,0 Z"
         id="path6985" />
    </clipPath>
    <linearGradient
       x1="0"
       y1="0"
       x2="1"
       y2="0"
       gradientUnits="userSpaceOnUse"
       gradientTransform="matrix(-241.379,-5241.38,-5241.38,241.379,21568.2,2649.1)"
       spreadMethod="pad"
       id="linearGradient6993">
      <stop
         style="stop-opacity:1;stop-color:#bee029"
         offset="0"
         id="stop6989" />
      <stop
         style="stop-opacity:1;stop-color:#48ab39"
         offset="1"
         id="stop6991" />
    </linearGradient>
    <clipPath
       clipPathUnits="userSpaceOnUse"
       id="clipPath7003">
      <path
         d="m 19310.7,15587.7 c 71.5,-159.1 622.3,-120.4 747.4,-114.1 80.6,4 344.8,52.1 416.4,76.7 90.8,31.2 261.5,189.4 345.2,89.6 50.8,-60.5 120.8,-102.6 199.7,-104.6 108,-2.6 212.5,28.5 318.3,57 63.7,17.2 122.5,68 194.9,60.4 61.5,-6.5 71.1,-84.6 116.4,-92.3 118.2,-20.1 192.4,-56.7 291.9,46.2 97.8,-107.3 221.2,-138.7 352.6,-144.7 81.2,-3.7 160.6,17.8 234.1,52.4 203.4,96 822.3,55.8 955.8,42.8 195.1,-18.9 382.9,64.5 580.9,31.1 131.6,-22.3 189.9,-63.9 240.7,-130.3 75.7,-99.2 203.3,-139.3 324.6,-110.3 18.6,4.5 36.6,7.1 53.8,7.2 118.8,0.1 77.5,-49.7 155.2,-63.2 140.6,-24.5 274.5,-85.4 413.8,0.7 132.6,81.9 130.6,139.5 96,220.5 -43.9,102.5 42.9,213.4 153.4,198.5 l 2.4,-0.3 c 1,-3.9 1.7,-7.7 2.2,-11.5 2.8,-23.6 20.6,-41.8 44.2,-44.6 43.4,-5 88.6,-24.6 124.4,-23.5 -27.6,-212.5 217.3,-222.4 359.2,-176.3 33.7,11 38.3,88 95.9,110.6 96,37.8 219.9,-13.8 303.5,-40.7 122.4,-39.4 472.7,-208.4 681.8,-159.1 47.3,11.1 59.6,73.1 19,99.9 -85.2,56.1 -234.2,64.5 -303.5,101.9 -335.9,181.4 -330.9,703.1 -789.1,674.1 -134.7,-8.5 -272.5,-77.4 -370.6,-148.2 -40,-28.9 -2.8,-118.3 -103.7,-131 -205.6,-26.1 -265.8,177.4 -302,312.9 -70.8,264.6 -522.6,123.6 -522.6,123.6 0,0 -173.9,490 -458.9,179.9 -223.7,66.2 -752.3,93.7 -696.7,-253.6 -196.5,212.5 -313.1,-42.9 -460.6,-82.3 -191.2,-51.1 -387,205.1 -518.6,-63.4 -26.5,-54.2 -12.9,-171.1 -8.6,-230.3 -172.8,-77.7 -596.6,380.7 -695.8,19.7 -9.8,7.6 -19.8,14.9 -29.9,22 -164.6,114.9 -407.9,35.8 -451.6,-160.1 -14.4,-64.4 -99.2,-82.2 -230.6,-44.1 -182.5,52.7 -128,85.7 -270.3,177.3 -127.9,82.4 -370.2,87.4 -342.3,-118.8 -53,-3.4 -104.6,-11.6 -155,-24.5 -63.6,-16.4 -73.9,-102 -15.3,-131.5 l 1.9,-0.9 c -242.5,-215.8 -176.3,-29.2 -382.8,-9.2 -120.1,11.6 -168.7,-98.8 -267.7,-119.2 -98,-20.3 -144.9,73.9 -243.8,4.2 -75.3,122.1 -266.2,230.2 -205.6,23.4 z"
         id="path7001" />
    </clipPath>
    <radialGradient
       fx="0"
       fy="0"
       cx="0"
       cy="0"
       r="1"
       gradientUnits="userSpaceOnUse"
       gradientTransform="matrix(2824.77,0,0,-2824.77,23229,15964.8)"
       spreadMethod="pad"
       id="radialGradient7009">
      <stop
         style="stop-opacity:1;stop-color:#ffffff"
         offset="0"
         id="stop7005" />
      <stop
         style="stop-opacity:1;stop-color:#afe4e8"
         offset="1"
         id="stop7007" />
    </radialGradient>
    <clipPath
       clipPathUnits="userSpaceOnUse"
       id="clipPath7019">
      <path
         d="m 27409,14323.2 c -134.5,11.8 -317.9,135 -377.7,254.4 138.2,62.1 493.3,-239.7 423,100.2 93.1,49.3 210.7,83.3 210.6,-57.4 115.7,79.4 511.1,-75.3 562.1,70.4 -4.6,-13.2 -579.2,500.3 -151,495.5 -58.6,69.6 449.7,723.8 491.1,90.1 75.6,130.8 382.2,-4.2 317.3,216.5 -33,111.8 -273.1,137.5 -326.3,274.6 -53.3,137.4 9.2,358.4 175.1,349.4 15.4,181.5 173.6,255.2 297.9,124.6 101.1,-106.1 53.6,-300.9 76.3,-423.8 112,205.1 553.1,423.2 491.9,28.3 80.7,79.6 171.3,-5 214.3,-108.7 40.2,43.6 99.4,100.7 150.4,144.6 -109.8,189.6 -278.1,334.7 -140.7,561.5 78.7,130 395.3,332.4 389.1,54.1 -10.4,165.6 261.8,282.7 398.8,210 133.8,-71 128.3,-245.6 130.9,-381.2 215.1,109.6 73.6,-358.4 347.8,-212.5 -132.3,274.7 37.2,635.5 321.2,744.6 115.9,44.6 324.9,42.3 315.8,-73.8 115.1,115.6 271.4,75.3 328.3,-69.7 49.9,-127.1 -39.7,-317 -96.7,-430.7 417.3,48.8 225.1,-658.7 -38.4,-759.6 418.2,-57.8 316.2,-264.7 143.6,-572.7 117.3,105.9 518.1,157.1 383.2,-79.6 15.9,181.6 359.6,143.7 462.9,65.4 -28.7,211.4 30.2,359.4 220.4,476.4 113.7,69.9 419.5,188.1 412.5,-42.1 122.1,271.1 406.6,-164.5 142.7,-376.8 166.7,25.8 604,-176.6 322.5,-362.5 250.9,-46.6 559.7,85.2 794.7,-46.4 141.3,211.3 470.4,81.5 636.8,-11.4 142.9,136.2 414.7,65.2 221.1,-132.6 -107.7,-110 -257.6,-108.7 -394.1,-119.1 -209.5,-16.1 -405.2,52.3 -613.8,42.6 0.6,-4.8 0.3,-10.6 -0.4,-17.1 -10.2,-88.7 -87.6,-153.3 -176.8,-156.8 -395.4,-15.5 -754.1,220.9 -1095.8,131.2 -464.5,-122 -992.2,-380.1 -1451.2,-93.1 -233.6,146 -154.1,132.5 -398.5,91.6 -249.5,-41.8 -377.2,-12.7 -613.6,86.3 -74,30.9 -206.5,63.3 -271.3,100.3 -130.6,74.5 -208.4,318 -420.8,240 -61.6,-22.6 -103.6,-127.1 -155.1,-171.1 -104.3,-88.8 -192.4,-106.5 -315.3,-147 -267,-88 -369.9,-141.2 -582.8,-44 -156.1,71.3 -116.4,83.3 -270.3,75.9 -166.1,-8 -287.5,-143.6 -447.8,-134.6 -151.2,8.4 -229.8,118.6 -397.2,97.8 -119.2,-14.8 -225.2,-124.8 -341.8,-137.4 -134.8,-14.6 -217.6,82.9 -343.9,72.8 -7.5,50.5 -8.6,101.2 39,-37.4 z"
         id="path7017" />
    </clipPath>
    <linearGradient
       x1="0"
       y1="0"
       x2="1"
       y2="0"
       gradientUnits="userSpaceOnUse"
       gradientTransform="matrix(8696.46,0,0,-8696.46,27031.3,15492.3)"
       spreadMethod="pad"
       id="linearGradient7027">
      <stop
         style="stop-opacity:1;stop-color:#ffffff"
         offset="0"
         id="stop7021" />
      <stop
         style="stop-opacity:1;stop-color:#ffffff"
         offset="0.217877"
         id="stop7023" />
      <stop
         style="stop-opacity:1;stop-color:#97dce2"
         offset="1"
         id="stop7025" />
    </linearGradient>
    <clipPath
       clipPathUnits="userSpaceOnUse"
       id="clipPath7037">
      <path
         d="m 9920.84,14280 c -108.2,19.8 -189.23,141.9 -295.05,158.8 -90.5,14.4 -194.4,-42.3 -295.06,-53.4 -249.68,-27.8 -445.73,111.9 -669.73,105.3 -193.46,-5.6 -114.5,-126.6 -257.67,-163.8 -121.89,-31.7 -232.74,50.9 -380.37,22.2 -83.9,-16.4 -988.76,-112.5 -770.12,140 92.39,106.7 453.97,-46 581.94,-3 136.69,46 239.53,327.7 458.52,175 194.35,374.8 536.43,489.8 677.57,57.8 188.67,8.4 262.71,191.4 470.31,51.7 -95.55,332.3 497.91,234.7 582.52,-2.8 -20,143.3 -62.75,344.2 62.4,459.8 109.8,101.4 317.9,98.2 401.5,-17.8 92.3,193.5 439.4,112 570.7,22.4 25,100.2 105.1,171.1 191.2,181.2 -247.8,-1 -579.9,160.5 -697.6,401.5 -107.9,220.8 41.1,356.5 274.1,284.1 -5.9,373.4 368.7,196.6 487.9,18.5 -64.5,259.4 383.4,282.7 457.8,81.9 46.7,114.7 179.8,152.4 298.1,147.7 -239.2,280.3 167.9,703.8 294.6,418.2 -147.4,154 57.5,345.5 231,212.2 140.6,102.9 299.6,84.4 465.1,84.5 -17.8,89.4 0.5,185.1 83.7,211.1 -489.8,-123.5 -145.2,938.3 93.1,586.1 30,478.6 679.5,748 536.8,72.9 131.2,261.2 224.5,-383.7 173.6,-520.7 298.5,241.9 593.3,-334.6 332.9,-551.1 -5.1,241.1 330.9,438 531.2,469.5 239.7,37.7 589.8,-205.1 380.8,-438.1 -68.4,513.2 1170.6,897.7 930.8,108.2 0.1,0.2 0.3,0.4 0.4,0.5 20.3,24.2 60.1,12 67.5,-18.7 15.7,-64.4 -9.1,-131.6 -55.1,-189.5 153.1,-25.7 569.3,-352.9 273.2,-488.7 157.8,14.4 353.7,-8.8 357.7,-189.5 367.5,71.3 290.6,-271.3 121.9,-442.3 124.1,26.5 303.8,85 392.4,-41.7 74.1,-106 -12.9,-289.8 -96.2,-361.3 130.6,33.1 243.1,-41.5 362,-61.8 45.4,195.1 263.8,498.8 486.1,320.8 62.4,83.4 238.8,149 404.1,164.8 146,14.1 244.9,-148.1 166.1,-271.9 -27.8,-43.6 -47.7,-89 -41.4,-143.5 134.2,97.6 266.9,-30.2 322.3,-153.7 0,0 0,0 0,0 52.1,10.9 103.7,-17.9 115.8,-69.6 3.6,-15.7 5.5,-32.1 4,-49.4 193.7,207.9 841.3,126.5 654.3,-209.2 168.8,157.3 814.7,121.6 563.5,-116.9 104,-27.7 251.8,73.4 301.4,-86.3 140.9,26.7 280.4,122.9 427.5,95.3 11.6,-25.1 15.8,-51.5 12.6,-79 114.1,-22.3 393.8,6 272.9,-149.4 -110.1,-141.4 -578.9,-37.1 -728.4,-69.3 -206.6,-44.6 -353.9,-134.8 -585.2,-130.4 -202.7,3.8 -328.5,76.3 -499,114 -180.4,39.9 -390.3,22 -578.3,50.7 -241,36.8 -268.8,-6.3 -457.4,-97.1 -509.1,-245.2 -859,173.2 -1369.4,122 -312.3,-31.4 -574,30.6 -876,110 -212.5,55.9 -227.6,121 -425.7,66.6 -237.4,-65.2 -507.7,-315.1 -769.5,-283.3 -223,27 -264.2,178.6 -531.9,155.8 -306.7,-26.1 -490.5,-36.3 -710.6,219.7 -189.7,-461.7 -563.4,-369.3 -964.9,-358.8 -118.7,3.1 -94.5,-63 -258.4,-27.3 -119.1,26 -209,168.2 -323.4,195 -329.6,77.2 -386.4,-320.5 -670.4,-311.3 -104.6,3.4 -196.5,129.8 -292.3,156.4 -140,38.9 -116.2,13 -242.4,2.4 -134.6,-11.3 -237.6,-19 -375.7,-13 -153.1,6.7 -505,-12.4 -635.28,-93.2 -32.69,46.5 -46.84,99.8 -21.38,12.2 z"
         id="path7035" />
    </clipPath>
    <linearGradient
       x1="0"
       y1="0"
       x2="1"
       y2="0"
       gradientUnits="userSpaceOnUse"
       gradientTransform="matrix(14047.3,0,0,-14047.3,7218.86,16276.3)"
       spreadMethod="pad"
       id="linearGradient7045">
      <stop
         style="stop-opacity:1;stop-color:#ffffff"
         offset="0"
         id="stop7039" />
      <stop
         style="stop-opacity:1;stop-color:#ffffff"
         offset="0.217877"
         id="stop7041" />
      <stop
         style="stop-opacity:1;stop-color:#97dce2"
         offset="1"
         id="stop7043" />
    </linearGradient>
    <clipPath
       clipPathUnits="userSpaceOnUse"
       id="clipPath7055">
      <path
         d="m 22528.2,16941.8 c -162.6,-46.7 -241.7,-35.5 -409.2,-58 -225.1,-30.4 -312.4,-183 -538.2,-158.1 -149.6,16.6 -309.1,89.5 -484,53.7 -210.4,-43.1 -340.9,-226.8 -499.9,60.5 -157.3,-93.2 -331.5,-147.7 -490.7,-60.9 -45.3,24.7 -48.1,102.9 -99.5,126.2 -71.9,32.5 -157.9,-24.1 -245,-24.6 -28.8,-237.3 -254.8,-11.5 -345.1,-1.1 -98.3,11.3 -287.2,-28.8 -385.1,-58 -58.6,-17.5 -79.2,-106.8 -136.6,-109.4 -73.2,-3.3 -166.7,95.8 -237.4,114.6 -125.7,33.6 -349.6,-39.5 -372.1,139.3 91.2,13 191.7,-4.8 268.2,-37.7 -1.8,141.6 105,473.4 261.4,236.8 68.4,56 154.8,48.2 225.8,-7 52.5,58 129.3,77.2 204.4,64.5 -2.6,31 -2.6,96.8 -10.4,123.3 17.1,2.7 44,-4.2 59.5,3.8 -142.5,146.7 -53,648.2 122,465.3 115.9,398 344.8,219 365.9,-111.7 235,225.3 279.3,-25.5 272.6,-249 129,20.7 228.3,-60.7 232.1,-189.8 32.8,-4.6 131.7,7.9 162.2,18.9 -30.8,170.8 164.2,445.1 301.4,234.5 6.9,77.9 51.6,143.8 121.9,179 71.9,-61.6 73,-171.4 71.6,-263.8 152,-9.5 368.4,-77.5 178.3,-271.5 160.6,136.2 215.7,-64.1 219.5,-209.4 57.4,44.6 132.8,60.6 201.8,39.8 23.8,172.5 217,237.2 323.1,88.8 -59.1,245 249.6,230.2 256.3,-23.4 85.4,104.4 192.5,61.7 211,-67.8 130.8,10 167.9,41.8 351.8,-50.3 10.2,-5.1 3.3,-22.2 -8.2,-23.2 -38.1,-3.3 -105.1,-1.2 -149.4,25.7 z"
         id="path7053" />
    </clipPath>
    <radialGradient
       fx="0"
       fy="0"
       cx="0"
       cy="0"
       r="1"
       gradientUnits="userSpaceOnUse"
       gradientTransform="matrix(1630.17,0,0,-1630.17,20488.1,17362.4)"
       spreadMethod="pad"
       id="radialGradient7061">
      <stop
         style="stop-opacity:1;stop-color:#ffffff"
         offset="0"
         id="stop7057" />
      <stop
         style="stop-opacity:1;stop-color:#afe4e8"
         offset="1"
         id="stop7059" />
    </radialGradient>
    <clipPath
       clipPathUnits="userSpaceOnUse"
       id="clipPath7071">
      <path
         d="m 22982.8,17353.9 c 43.1,-6.7 87.3,-5.6 130.8,-1.9 132.7,11.1 206.9,-31.5 365.9,-84.5 153.2,-51.1 300,-4.3 462.5,-36 111.7,-21.7 82.5,-56.8 189.3,-52.4 47,1.9 283.5,48.4 317.5,71 95.8,63.5 58.2,197.2 203,257 98.4,40.6 224.6,31.2 279,-49.9 29.4,-43.8 78.5,-69.7 130.6,-77.7 238.3,-36.7 730.9,-271.9 827.3,-151.3 29.1,36.4 71,60.7 117.4,56.4 85.5,-8 165.6,-28.2 259,-12.3 88,14.9 123.6,85.8 222.5,80.8 98.5,-4.9 126.2,-87.2 210.2,-103 130.4,-24.6 547,0 556.7,183 0.1,0.3 0.4,0.6 0.7,0.4 47,-23.7 128.1,-104.6 194.2,-112.4 117.7,-13.8 148.5,93.7 261.6,112.8 124.4,21 132.4,-55.1 230.2,-83.2 75.5,-21.7 142.4,-9.1 211.4,-24.3 177,-38.8 266.6,-30.6 446.7,-40.5 109.4,-6.1 175.6,-68.7 299.3,-56.4 42.1,4.2 55.4,71.8 132.1,59.4 218,-35.2 45.2,-101.3 170.5,-210.9 258.8,-226 379.2,180.4 471.6,234 106.4,61.8 801.2,-235 887.6,-5 23.9,63.6 -34.5,128.3 -100.8,114.1 -85.6,-18.3 -180.7,-46.1 -247.6,-26.2 -61.3,18.2 -72.3,113.5 -98.5,123.9 -75.1,29.7 -146.1,4.1 -229.3,22.3 -237.1,51.9 -779.1,588.5 -845.4,45.6 0,-0.2 -0.1,-0.4 -0.3,-0.4 -32.4,-11 -65.6,-21.9 -97.5,-20.6 -0.2,0 -0.4,0.2 -0.5,0.4 -41.8,165.7 -342.1,267.5 -446,129 -0.3,-0.3 -0.7,-0.3 -0.8,0.1 -3.7,7.2 -7.8,14.2 -12.1,21 -19.2,29.6 -62.1,31.1 -84.3,3.8 v 0 c 6.6,263.1 -408.9,145.9 -412.2,145 -0.1,0 0,0 0,0 -2.1,3.2 -267.8,400.2 -367.9,-7.2 0,-0.3 -0.4,-0.5 -0.6,-0.4 -89,27 -86.4,-9.1 -155.1,-63.6 -0.2,-0.2 -0.4,-0.2 -0.6,0 -101.5,113.9 -537.4,473.5 -546.4,72 0,-0.5 -0.7,-0.9 -0.8,-0.4 -30.7,105.3 -130.5,606 -338.1,314.9 -0.3,-0.5 -1.1,-0.3 -1,0.3 13.7,87.8 87.2,207.5 66.9,294.4 -46.2,197.4 -284.1,214.6 -415.3,78.3 -0.4,-0.4 -0.9,0 -0.6,0.5 214,335 -601.8,561.5 -530.5,109.3 0.1,-0.6 -0.6,-0.8 -0.9,-0.3 -179.5,282.9 -323.7,-55.7 -254.7,-255 0.2,-0.4 -0.3,-0.7 -0.7,-0.5 -343.5,143.1 -167.1,-156.9 -116.2,-326.5 16.1,-53.7 -53.6,-93.5 -90.4,-51.2 -53.7,61.7 -58,176.3 -134.6,238.4 -158.5,128.5 -378.6,40 -334.4,-174 0.1,-0.5 -0.5,-0.8 -0.8,-0.4 -86.4,113.6 -255.4,253 -407,160 -96.3,-59.2 -144,-209.5 -37.3,-270.8 v 0 c -58.1,0.2 -98.9,-57.7 -86,-114.1 18.7,-82 45,-183.5 24.2,-212.4 -60.7,-84.6 -190.7,-18.5 -284.3,52.1 -45.4,34.3 -110.5,30.5 -149.5,-11 -75.2,-80 -158.8,21.3 -278.1,29.1 -67.4,4.4 -285.8,-86.6 -366.8,-111 -57.1,-17.2 -50.7,-84.7 -101.7,-97.7 -59.5,-15.1 -131.5,25.4 -191.1,1.2 -34.1,-13.8 -62.4,-29.7 -86.4,-48.6 -57.3,-45.2 -16.1,-138 56.3,-128.9 58,7.3 105.4,16 128.1,12.4 z"
         id="path7069" />
    </clipPath>
    <radialGradient
       fx="0"
       fy="0"
       cx="0"
       cy="0"
       r="1"
       gradientUnits="userSpaceOnUse"
       gradientTransform="matrix(2836.96,0,0,-2836.96,26668.6,17963.3)"
       spreadMethod="pad"
       id="radialGradient7077">
      <stop
         style="stop-opacity:1;stop-color:#ffffff"
         offset="0"
         id="stop7073" />
      <stop
         style="stop-opacity:1;stop-color:#afe4e8"
         offset="1"
         id="stop7075" />
    </radialGradient>
    <clipPath
       clipPathUnits="userSpaceOnUse"
       id="clipPath7087">
      <path
         d="m 22009.3,23067.6 c -89.1,20.4 -377.6,364.4 -487.8,-2.4 -220,100.8 -401.7,-99.6 -332.5,-311.7 -230.5,44.9 -215.2,-240.1 -175.9,-383.8 -93.9,148.2 -526.4,220.3 -535.5,-34.3 -207.8,18.6 -188.8,-247.3 -110.8,-373.9 -175.1,83.7 -478.6,40.5 -462.4,-206.4 57.8,486.2 -757.1,653.7 -940.4,220.4 -4.7,175.2 -35,788.5 -380.8,544.2 -10.7,254.4 -297.1,192.5 -304.3,-40.8 -239.1,2 -460.9,-404.9 -253.5,-550 -0.5,0.7 -1,1.3 -1.5,1.9 -63.6,77.9 -188.6,47.1 -214.7,-49.9 -17.2,-64.1 -19.8,-134.2 -20.5,-199.7 -310.2,34.4 -754.4,128.9 -730.5,-356.8 -93.5,127 -221.7,159.4 -400.5,173.7 -104.9,8.3 -240.9,-43.3 -290.4,52.6 -36.9,71.5 4.6,159.1 81.5,182.8 94.6,29.3 174.9,65 190.4,184.3 15.3,117.6 -57.3,228.7 -173.9,246.8 267.5,171.1 -115.5,293.3 -292,289.3 -109.9,321.2 -480.7,409 -580.5,45 -313.6,102.5 -602,-57.9 -396.9,-420.6 107.7,-190.5 488.4,-416.9 231.2,-542.6 -76.4,-37.3 -166,-32.8 -242.1,4.9 -83.7,41.5 -176.3,66.8 -256.7,21.8 -155.3,-86.9 -163.8,-339.9 0.6,-412.8 -241.5,18.3 -161.4,-250.7 0.7,-322 -185.8,-12.3 -647.7,127.2 -523.2,-260.4 -111.4,80.6 -193.3,58.3 -259.4,-3.8 -120.1,-113 -114.8,-306.7 5,-419.9 4.2,-3.9 8.3,-7.9 12.5,-11.8 -48.6,5.6 -88.2,14 -126.9,30 -59.1,24.4 -128.2,12.3 -169.5,-36.4 -3.3,-3.9 -5.9,-7.5 -7.6,-10.7 -66.8,40.7 -121.3,167.7 -178.7,192.9 -185.5,81.2 -487.2,-168.4 -391,-379.1 -168.6,93.7 -616.1,154.8 -572.9,-148.4 -245.7,92.9 -442.3,-137.4 -442.3,-137.4 0,0 -535.1,169.6 -476.3,-107.9 -202.1,22.3 -280.6,208 -502.9,120.1 -0.9,-0.4 -1.9,-0.8 -3,-1.2 -154.2,-64.5 -88.1,-297.4 77.1,-271.7 174.5,27.2 348.4,42.4 508,-1.5 134.3,-37 193.2,-106.8 331.5,-106.5 114,0.3 176.1,62.6 304.1,48 201.4,-22.9 395.4,-94.3 598.9,-52 157.1,32.7 279.3,111.8 424.5,196.1 225.7,131 197.4,163.8 473.1,22.6 345.2,-176.7 574.2,52.1 887.6,-30.1 188.1,-49.3 662.8,-296.8 855.9,-185.1 93.6,54.1 123.6,140.3 138.6,233.9 35.2,220.2 243.1,374.1 462.4,333.4 6,-1.1 12.2,-2.4 18.6,-3.9 209.9,-48 252.9,-79.3 436.9,-175.6 240.8,-125.9 244.3,-80.7 472.8,85.1 138.1,100.2 -15.7,94.6 197,144.3 192.9,45.1 371.3,-139.7 515.8,-247 244.1,-181.2 369.8,-317.4 707.7,-244.5 34.6,47.5 78.1,84 130.6,109.7 90,-8.4 179.7,-5 268.9,10.2 188.5,27.4 497.2,90.2 657.2,194.3 80.4,52.3 72.3,208.8 197,221.4 175.5,17.9 154,-185.3 246.7,-269 49.6,-44.8 162.2,-101.1 226.7,-110.7 110.3,76.2 233.3,117.4 369,123.5 108.2,4.3 214.7,-6.3 319.3,-31.7 124.4,4.1 208.3,81 272.1,180.6 80.6,125.9 271.1,102 316.8,-40.3 19.8,-61.6 41.6,-107.8 67.7,-117.7 86.8,-32.9 89.1,34 191.6,33.7 236.8,-0.9 484.7,37.2 716.3,21.7 167.4,-11.3 329.8,-104.3 496.8,-94.2 124.5,7.5 247.8,115.8 386.4,117.7 182.8,2.5 383.8,-22.8 569.2,-31 161.2,-7.1 272.8,-43.4 438.9,-29.5 151,12.6 314.5,64.2 465,59.3 93.9,-3.1 193.9,-64.4 285.3,-60.7 262.9,10.8 460.8,222.5 699.4,322.5 17.8,-62.4 30.6,-125.9 38.2,-190.5 164.8,-113.4 352,24.1 540.8,-57 94.2,-114.6 212.8,-173.3 356,-176.2 174.1,-46.3 351.1,-49.3 530.9,-9.2 256.1,-6.7 868.2,-222.2 771.9,245.6 9.6,-3.7 18.4,-6.8 26.5,-9.2 91.7,-27.6 141.7,108.4 53.3,145.2 -116.9,48.6 -276.9,23.6 -385.3,-24.6 -90.8,234.7 -248,951.3 -663.8,593 1.2,295.6 -380.3,518.7 -642.4,468.9 -97.7,-18.5 -332.5,-198.8 -356.9,-316.6 -13.2,-63.6 -62.3,-114.5 -127,-120.6 -177.3,-16.9 -65.4,137.7 -178,412.7 -73.5,179.7 -571.5,633.6 -811.4,594.9 -212.9,-34.2 -172.7,-215.4 -328.9,-271.7 -64.7,-23.3 -427.9,-67.2 -497.4,-23.6 -177.1,111.3 -101.3,776.5 -511.3,474.9 105.5,194.1 -77.3,562.5 -264.4,601 -262.9,54.1 -460.1,-73.7 -512.1,-82.5 -228,-38.6 -235.4,-185.7 -251.8,-345.6 -23,-224.2 -292.3,-335.2 -459.7,-184.2 -59.4,53.6 -84.2,120.6 -58.9,267.3 26.3,153.2 190.7,347.2 15.2,463 402.1,168.2 -151.7,385.4 -163.3,605.5 -1.2,24.5 -121.4,88.2 -135.7,-1.8 z"
         id="path7085" />
    </clipPath>
    <linearGradient
       x1="0"
       y1="0"
       x2="1"
       y2="0"
       gradientUnits="userSpaceOnUse"
       gradientTransform="matrix(115.964,-3131.02,-3131.02,-115.964,19686.8,22694.3)"
       spreadMethod="pad"
       id="linearGradient7095">
      <stop
         style="stop-opacity:1;stop-color:#ffffff"
         offset="0"
         id="stop7089" />
      <stop
         style="stop-opacity:1;stop-color:#ffffff"
         offset="0.217877"
         id="stop7091" />
      <stop
         style="stop-opacity:1;stop-color:#97dce2"
         offset="1"
         id="stop7093" />
    </linearGradient>
    <clipPath
       clipPathUnits="userSpaceOnUse"
       id="clipPath7105">
      <path
         d="m 28826.5,14650.3 c 71.5,-159.1 622.3,-120.4 747.4,-114.2 80.6,4.1 344.9,52.1 416.5,76.8 90.7,31.2 261.4,189.4 345.2,89.5 50.7,-60.5 120.7,-102.6 199.7,-104.5 107.9,-2.7 212.4,28.4 318.2,57 63.7,17.2 122.5,68 194.9,60.3 61.5,-6.4 71.2,-84.5 116.4,-92.2 118.2,-20.2 192.4,-56.7 291.9,46.2 97.8,-107.3 221.2,-138.8 352.7,-144.8 81.1,-3.7 160.5,17.8 234,52.5 203.5,96 822.3,55.7 955.9,42.8 195,-19 382.8,64.5 580.8,31.1 131.6,-22.3 189.9,-63.9 240.7,-130.4 75.8,-99.1 203.3,-139.2 324.6,-110.2 18.6,4.4 36.7,7.1 53.8,7.1 118.8,0.1 77.6,-49.6 155.2,-63.2 140.6,-24.5 274.6,-85.4 413.9,0.8 132.5,81.9 130.6,139.5 95.9,220.4 -43.9,102.5 42.9,213.5 153.4,198.6 l 2.4,-0.4 c 1,-3.8 1.7,-7.7 2.2,-11.4 2.8,-23.7 20.6,-41.9 44.3,-44.6 43.3,-5 88.5,-24.6 124.3,-23.6 -27.6,-212.4 217.4,-222.3 359.2,-176.2 33.7,11 38.4,88 95.9,110.6 96.1,37.7 219.9,-13.9 303.5,-40.8 122.4,-39.4 472.7,-208.4 681.8,-159.1 47.4,11.2 59.6,73.1 19,99.9 -85.2,56.2 -234.2,64.6 -303.4,102 -335.9,181.3 -331,703.1 -789.2,674.1 -134.7,-8.6 -272.5,-77.4 -370.5,-148.2 -40.1,-29 -2.9,-118.3 -103.8,-131.1 -205.6,-26.1 -265.8,177.4 -302,312.9 -70.8,264.6 -522.6,123.7 -522.6,123.7 0,0 -173.8,490 -458.9,179.9 -223.7,66.2 -752.3,93.7 -696.7,-253.7 -196.4,212.5 -313,-42.8 -460.6,-82.2 -191.2,-51.1 -387,205.1 -518.5,-63.5 -26.6,-54.1 -13,-171.1 -8.7,-230.3 -172.7,-77.6 -596.5,380.8 -695.8,19.8 -9.8,7.5 -19.7,14.9 -29.9,22 -164.6,114.9 -407.8,35.8 -451.6,-160.2 -14.3,-64.3 -99.2,-82.1 -230.6,-44.1 -182.5,52.8 -128,85.7 -270.3,177.4 -127.9,82.4 -370.2,87.3 -342.3,-118.8 -53,-3.5 -104.6,-11.6 -155,-24.6 -63.6,-16.3 -73.9,-102 -15.2,-131.5 l 1.8,-0.9 c -242.5,-215.7 -176.2,-29.1 -382.8,-9.1 -120.1,11.6 -168.7,-98.8 -267.7,-119.3 -98,-20.2 -144.9,73.9 -243.8,4.2 -75.2,122.2 -266.2,230.3 -205.6,23.5 z"
         id="path7103" />
    </clipPath>
    <linearGradient
       x1="0"
       y1="0"
       x2="1"
       y2="0"
       gradientUnits="userSpaceOnUse"
       gradientTransform="matrix(7859.91,0,0,-7859.91,28814.8,15027.3)"
       spreadMethod="pad"
       id="linearGradient7113">
      <stop
         style="stop-opacity:1;stop-color:#ffffff"
         offset="0"
         id="stop7107" />
      <stop
         style="stop-opacity:1;stop-color:#ffffff"
         offset="0.217877"
         id="stop7109" />
      <stop
         style="stop-opacity:1;stop-color:#97dce2"
         offset="1"
         id="stop7111" />
    </linearGradient>
    <clipPath
       clipPathUnits="userSpaceOnUse"
       id="clipPath7123">
      <path
         d="m 31309.5,18981.4 c -108.2,19.7 -189.3,141.9 -295.1,158.8 -90.5,14.4 -194.4,-42.3 -295,-53.5 -249.7,-27.7 -445.8,112 -669.8,105.4 -193.4,-5.7 -114.5,-126.6 -257.6,-163.8 -121.9,-31.7 -232.8,50.9 -380.4,22.1 -83.9,-16.3 -988.8,-112.4 -770.1,140.1 92.4,106.7 453.9,-46.1 581.9,-3 136.7,46 239.5,327.7 458.5,175 194.4,374.8 536.4,489.8 677.6,57.8 188.7,8.4 262.7,191.4 470.3,51.7 -95.5,332.3 497.9,234.7 582.5,-2.8 -20,143.3 -62.7,344.2 62.4,459.8 109.8,101.4 317.9,98.2 401.6,-17.8 92.2,193.5 439.3,112 570.6,22.3 25,100.3 105.2,171.2 191.2,181.3 -247.8,-1 -579.9,160.5 -697.6,401.5 -107.9,220.8 41.1,356.6 274.2,284.1 -6,373.4 368.6,196.6 487.8,18.5 -64.4,259.4 383.4,282.7 457.8,81.9 46.7,114.7 179.8,152.4 298.1,147.7 -239.2,280.3 167.9,703.8 294.6,418.2 -147.4,154 57.5,345.5 231.1,212.2 140.5,102.8 299.6,84.4 465,84.5 -17.8,89.4 0.5,185.1 83.7,211 -489.8,-123.4 -145.2,938.4 93.1,586.2 30,478.6 679.5,748 536.8,72.9 131.3,261.2 224.6,-383.7 173.6,-520.7 298.6,241.9 593.4,-334.6 332.9,-551.1 -5.1,241.1 330.9,438 531.2,469.5 239.7,37.7 589.8,-205.1 380.8,-438.2 -68.4,513.3 1170.7,897.8 930.8,108.3 0.1,0.2 0.3,0.4 0.4,0.5 20.3,24.2 60.1,12 67.6,-18.7 15.7,-64.4 -9.1,-131.7 -55.2,-189.5 153.1,-25.7 569.4,-352.9 273.3,-488.7 157.7,14.4 353.6,-8.8 357.6,-189.5 367.5,71.3 290.6,-271.3 121.9,-442.3 124.1,26.4 303.8,85 392.4,-41.7 74.1,-106 -12.9,-289.8 -96.1,-361.3 130.5,33.1 243,-41.5 361.9,-61.8 45.4,195.1 263.9,498.8 486.1,320.8 62.4,83.4 238.8,149 404.1,164.8 146,14 245,-148.1 166.1,-271.9 -27.8,-43.6 -47.7,-89 -41.3,-143.5 134.2,97.6 266.8,-30.2 322.3,-153.7 v 0 c 52,10.9 103.6,-17.9 115.7,-69.6 3.7,-15.7 5.5,-32.1 4,-49.4 193.8,207.8 841.3,126.5 654.3,-209.2 168.8,157.3 814.7,121.6 563.5,-116.9 104,-27.8 251.9,73.4 301.4,-86.3 140.9,26.7 280.4,122.9 427.6,95.3 11.5,-25.1 15.7,-51.5 12.5,-79 114.2,-22.3 393.9,6 272.9,-149.4 -110.1,-141.4 -578.9,-37.1 -728.3,-69.3 -206.6,-44.6 -354,-134.8 -585.3,-130.4 -202.7,3.8 -328.5,76.3 -499,114 -180.4,39.9 -390.2,22 -578.3,50.7 -241,36.8 -268.8,-6.3 -457.3,-97.1 -509.2,-245.2 -859.1,173.2 -1369.5,122 -312.2,-31.4 -574,30.6 -876,110 -212.5,55.9 -227.5,121 -425.7,66.6 -237.4,-65.2 -507.7,-315.1 -769.5,-283.4 -223,27.1 -264.2,178.7 -531.9,155.9 -306.7,-26.1 -490.5,-36.3 -710.6,219.6 -189.7,-461.6 -563.4,-369.2 -964.9,-358.7 -118.6,3.1 -94.5,-63 -258.3,-27.3 -119.2,26 -209.1,168.2 -323.5,195 -329.6,77.2 -386.4,-320.5 -670.3,-311.3 -104.6,3.4 -196.5,129.8 -292.4,156.4 -140,38.9 -116.2,12.9 -242.4,2.4 -134.6,-11.3 -237.6,-19 -375.7,-13 -153.1,6.7 -505,-12.4 -635.3,-93.2 -32.7,46.5 -46.8,99.7 -21.3,12.2 z"
         id="path7121" />
    </clipPath>
    <linearGradient
       x1="0"
       y1="0"
       x2="1"
       y2="0"
       gradientUnits="userSpaceOnUse"
       gradientTransform="matrix(14047.3,0,0,-14047.3,28607.5,20977.7)"
       spreadMethod="pad"
       id="linearGradient7131">
      <stop
         style="stop-opacity:1;stop-color:#ffffff"
         offset="0"
         id="stop7125" />
      <stop
         style="stop-opacity:1;stop-color:#ffffff"
         offset="0.217877"
         id="stop7127" />
      <stop
         style="stop-opacity:1;stop-color:#97dce2"
         offset="1"
         id="stop7129" />
    </linearGradient>
    <clipPath
       clipPathUnits="userSpaceOnUse"
       id="clipPath7141">
      <path
         d="m 5829.77,20482.1 c 61.45,30.2 211.8,401.6 356.25,53.1 142.89,124.2 310.46,-52.3 296.99,-269.1 160.34,70.5 198.91,-211.8 195.38,-357.7 42.57,156.5 345.47,276.8 396.6,27.2 148.33,41.9 180.87,-222 146.13,-355.5 113.12,102.3 342.03,94.3 373.32,-150.6 -127.06,472.1 438.15,729.7 647.48,324 -27.13,173 -112.12,780.1 182.78,579.1 -36.69,251.6 183.1,223.2 229.07,-5.6 174.04,29.2 406.93,-346.2 281.01,-512.5 0.24,0.7 0.49,1.3 0.75,1.9 32.75,84 129.36,68 165.3,-24.7 23.73,-61.1 37.86,-129.8 49.86,-194.1 220.25,69.1 527.78,212.7 595.17,-268.2 46.01,135.7 133.85,182.2 261.84,216.5 75,20.2 183.2,-15.1 202.6,84.9 14.4,74.6 -31.2,156.1 -91.4,170.7 -74.1,18.1 -138.9,44.1 -171.04,159.7 -31.71,114.1 1.82,231.7 83.74,262.8 -225.02,137.9 33.1,301.8 162.5,318 24,328.6 279.2,457.2 415.6,110.3 210.8,136.6 449.2,11.6 362.9,-368.9 -45.3,-199.7 -283.4,-465.9 -73.8,-560.3 62.2,-28.1 126.7,-13.5 175.7,32.3 53.8,50.4 117,85.8 183.5,50.7 128.4,-67.9 178.8,-315.9 71.6,-406.4 173,45.4 161.5,-228.4 55.8,-317.1 137.6,9 450.2,198.9 427.1,-196.8 67.1,92 130.8,79.4 189.9,25.8 107.3,-97.5 137.3,-288.9 69.6,-413.9 -2.3,-4.4 -4.7,-8.7 -7,-13 34.4,11 61.9,23.7 87.3,43.9 38.8,30.8 91.4,26.7 130,-16.5 3.1,-3.4 5.6,-6.7 7.4,-9.7 41.6,47.7 59.2,178.9 96.7,210.2 121.1,101.1 384.8,-110.3 351.4,-328.7 106.6,111.5 422.4,222.6 443.9,-80.8 163,119.3 346.6,-84.9 346.6,-84.9 0,0 360.7,227.7 366.3,-52 143.5,44.8 168.3,236.6 345.8,175.4 0.8,-0.3 1.6,-0.6 2.4,-0.9 123.8,-45.9 116.3,-282.8 -8.8,-276.2 -132,6.9 -261.5,2.1 -370.3,-59.3 -91.5,-51.7 -122.3,-127.1 -223.2,-142.5 -83.2,-12.7 -139.4,41.6 -230.2,12.6 -142.9,-45.5 -272,-137.8 -427.8,-119.3 -120.3,14.3 -223.3,78.2 -343.9,144.7 -187.5,103.3 -172.6,138.8 -349,-31.5 -221,-213.3 -428,-14.1 -642.2,-130.7 -128.6,-69.9 -431.7,-367.6 -592.1,-279.6 -77.6,42.6 -114.6,124 -141.9,214.5 -64.2,212.7 -242.7,340.6 -395.5,275.5 -4.2,-1.7 -8.5,-3.7 -12.9,-5.9 -144.7,-71.2 -170.6,-106.9 -288,-222.6 -153.7,-151.4 -164.2,-107.2 -359.84,30 -118.2,82.9 -5.01,94.9 -168.91,119.6 -148.53,22.4 -246.42,-179.8 -333.08,-301.8 -146.38,-206.1 -214.3,-354.5 -473.55,-321.2 -33.52,42.8 -71.65,73.8 -114.37,93.1 -64.21,-18.5 -130.21,-25.4 -198,-20.6 -142.21,5.6 -378.42,32.2 -513.31,116.5 -67.79,42.3 -89.17,197.3 -182.33,195.6 -131.14,-2.4 -79.97,-200 -132.97,-292.9 -28.39,-49.8 -100.66,-118 -146.06,-134.8 -93.75,62.5 -190.66,89 -290.73,79.7 -79.71,-8.2 -155.51,-30.7 -227.41,-67.6 -91.43,-10.2 -166.08,56 -230.05,146.8 -80.77,114.7 -215.5,69.5 -224.01,-75.7 -3.69,-62.9 -11.54,-110.9 -28.82,-123.6 -57.55,-42.2 -70.96,23.4 -145.66,11.3 -172.56,-27.7 -360.09,-18.5 -526.31,-60.1 -120.11,-30.1 -222.38,-140.1 -345.93,-149.2 -92.12,-6.8 -200.97,85.8 -302.4,71.9 -133.78,-18.3 -275.97,-66.1 -409.84,-95.3 -116.35,-25.3 -191.37,-73.8 -314.98,-79 -112.35,-4.8 -240.62,27.4 -349.57,5.4 -67.92,-13.6 -130.17,-85.4 -197.52,-92.1 -193.61,-19.4 -374.94,166.5 -566.46,237.8 -2.14,-63.4 -0.33,-127.3 5.41,-191.8 -100.42,-130.4 -261.02,-16.3 -384.54,-117.7 -48.68,-123.5 -124.98,-194.8 -228.89,-213.9 -118.97,-65.4 -247.54,-88.5 -385.71,-69.5 -185.64,-35.8 -594.52,-317.5 -605.96,153.9 -6.34,-4.8 -12.23,-8.7 -17.72,-12.1 -62.08,-37.5 -122.27,90.6 -64.2,136.9 76.72,61.1 197.86,54.7 285.35,19.6 25.19,241.4 14.75,964.7 380.61,659.3 -52.46,290.8 186.84,553.9 386.74,534.7 74.46,-7.2 277.27,-157.9 315.62,-271 20.74,-61.2 65.42,-105.7 113.72,-104.3 132.27,3.6 23.61,143 57.71,426.5 22.29,185.2 306.24,688.6 488.02,677.9 161.28,-9.5 163.57,-192.4 287.36,-230 51.24,-15.6 323.88,-17.4 366.93,33.4 109.8,129.6 -61.69,775.9 290.03,525.6 -110.85,179 -41.83,562.5 87.95,621.7 182.28,83.1 348.48,-20.2 387.96,-23 173.03,-12 204.11,-156 244.02,-311.5 55.95,-218 271.78,-296.7 367.47,-129 33.96,59.5 40.39,128.2 -3.66,269.8 -45.98,147.8 -199.8,320.1 -91.99,454 -322.72,119.8 43.37,396.7 13.33,614.7 -3.34,24.3 73.19,100.6 99.32,13.7 z"
         id="path7139" />
    </clipPath>
    <linearGradient
       x1="0"
       y1="0"
       x2="1"
       y2="0"
       gradientUnits="userSpaceOnUse"
       gradientTransform="matrix(10529.5,649.396,649.396,-10529.5,4535.8,18524.6)"
       spreadMethod="pad"
       id="linearGradient7149">
      <stop
         style="stop-opacity:1;stop-color:#97dce2"
         offset="0"
         id="stop7143" />
      <stop
         style="stop-opacity:1;stop-color:#ffffff"
         offset="0.782123"
         id="stop7145" />
      <stop
         style="stop-opacity:1;stop-color:#ffffff"
         offset="1"
         id="stop7147" />
    </linearGradient>
    <clipPath
       clipPathUnits="userSpaceOnUse"
       id="clipPath7159">
      <path
         d="m 14599.6,13981.2 c 43.1,-6.7 87.3,-5.6 130.8,-1.9 132.6,11 206.9,-31.5 365.9,-84.5 153.1,-51 299.9,-4.3 462.5,-36 111.7,-21.7 82.5,-56.8 189.3,-52.4 47,1.9 283.4,48.4 317.5,71 95.7,63.5 58.2,197.2 203,257 98.4,40.6 224.6,31.2 279,-49.9 29.4,-43.8 78.4,-69.7 130.6,-77.7 238.3,-36.7 730.8,-271.9 827.3,-151.3 29.1,36.4 71,60.7 117.4,56.4 85.5,-8.1 165.6,-28.2 259,-12.3 88,14.9 123.6,85.8 222.4,80.8 98.6,-4.9 126.3,-87.2 210.2,-103 130.5,-24.6 547.1,0 556.8,183 0,0.3 0.3,0.6 0.6,0.4 47.1,-23.7 128.2,-104.6 194.3,-112.4 117.7,-13.8 148.4,93.7 261.6,112.8 124.3,21 132.4,-55.1 230.2,-83.2 75.4,-21.7 142.4,-9.1 211.4,-24.3 177,-38.8 266.5,-30.6 446.7,-40.5 109.4,-6.1 175.6,-68.7 299.3,-56.4 42.1,4.2 55.4,71.8 132.1,59.4 218,-35.3 45.2,-101.3 170.5,-210.9 258.7,-226 379.2,180.4 471.6,234 106.4,61.8 801.2,-235 887.6,-5 23.8,63.6 -34.5,128.3 -100.9,114.1 -85.5,-18.3 -180.7,-46.1 -247.6,-26.2 -61.2,18.2 -72.3,113.5 -98.4,123.9 -75.2,29.7 -146.1,4.1 -229.3,22.3 -237.1,51.9 -779.1,588.5 -845.4,45.6 0,-0.2 -0.1,-0.4 -0.3,-0.4 -32.4,-11 -65.6,-21.9 -97.5,-20.6 -0.3,0 -0.4,0.2 -0.5,0.4 -41.8,165.7 -342.1,267.5 -446.1,129 -0.2,-0.3 -0.6,-0.3 -0.7,0 -3.8,7.3 -7.8,14.3 -12.2,21 -19.1,29.7 -62,31.3 -84.3,3.9 v 0 c 6.7,263.1 -408.8,146 -412.1,145 -0.1,0 0,0 0,0.1 -2.1,3.1 -267.8,400.1 -367.9,-7.3 -0.1,-0.3 -0.4,-0.5 -0.7,-0.4 -88.9,27 -86.3,-9.1 -155,-63.6 -0.2,-0.2 -0.5,-0.2 -0.6,0 -101.6,113.8 -537.4,473.5 -546.4,72 0,-0.5 -0.7,-0.9 -0.9,-0.4 -30.6,105.3 -130.5,606 -338,314.9 -0.3,-0.4 -1.1,-0.3 -1.1,0.3 13.7,87.9 87.3,207.5 67,294.4 -46.2,197.5 -284.1,214.6 -415.3,78.3 -0.5,-0.4 -0.9,0 -0.6,0.5 214,335 -601.8,561.5 -530.6,109.3 0.1,-0.5 -0.5,-0.8 -0.9,-0.3 -179.4,282.9 -323.6,-55.7 -254.6,-255 0.1,-0.4 -0.3,-0.7 -0.7,-0.5 -343.6,143.1 -167.1,-156.9 -116.2,-326.5 16.1,-53.7 -53.6,-93.5 -90.4,-51.2 -53.8,61.7 -58.1,176.3 -134.6,238.4 -158.5,128.5 -378.7,40 -334.5,-174 0.1,-0.5 -0.4,-0.8 -0.7,-0.4 -86.4,113.6 -255.4,253 -407,160 -96.3,-59.1 -144,-209.5 -37.3,-270.8 v 0 c -58.1,0.2 -98.9,-57.7 -86,-114.2 18.7,-81.8 45,-183.4 24.2,-212.3 -60.8,-84.6 -190.8,-18.5 -284.3,52.1 -45.4,34.3 -110.5,30.5 -149.5,-11 -75.2,-80 -158.8,21.3 -278.1,29.1 -67.4,4.4 -285.8,-86.6 -366.8,-111 -57.2,-17.2 -50.7,-84.7 -101.7,-97.7 -59.5,-15.1 -131.6,25.4 -191.1,1.2 -34.2,-13.8 -62.4,-29.7 -86.4,-48.6 -57.3,-45.2 -16.1,-138 56.3,-128.9 58,7.3 105.4,16 128.1,12.4 z"
         id="path7157" />
    </clipPath>
    <linearGradient
       x1="0"
       y1="0"
       x2="1"
       y2="0"
       gradientUnits="userSpaceOnUse"
       gradientTransform="matrix(7794.4,0,0,-7794.4,14388.2,14590.6)"
       spreadMethod="pad"
       id="linearGradient7167">
      <stop
         style="stop-opacity:1;stop-color:#ffffff"
         offset="0"
         id="stop7161" />
      <stop
         style="stop-opacity:1;stop-color:#ffffff"
         offset="0.217877"
         id="stop7163" />
      <stop
         style="stop-opacity:1;stop-color:#97dce2"
         offset="1"
         id="stop7165" />
    </linearGradient>
    <clipPath
       clipPathUnits="userSpaceOnUse"
       id="clipPath7177">
      <path
         d="m 24247.8,19520.4 c -299.7,-86.1 -445.4,-65.4 -754.1,-107 -414.8,-55.8 -575.7,-337.2 -991.8,-291.2 -275.7,30.5 -569.6,164.9 -892,98.9 -387.7,-79.5 -628.4,-417.9 -921.3,111.5 -289.8,-171.9 -610.8,-272.2 -904.4,-112.2 -83.4,45.4 -88.5,189.6 -183.3,232.5 -132.5,59.9 -291,-44.5 -451.4,-45.3 -53.1,-437.2 -469.7,-21.2 -636,-2.1 -181.3,20.9 -529.3,-53 -709.8,-106.8 -108,-32.3 -146,-196.9 -251.8,-201.7 -134.7,-6.1 -307.1,176.5 -437.4,211.3 -231.7,61.9 -644.3,-72.9 -685.7,256.8 168,23.9 353.2,-8.9 494.1,-69.7 -3.3,261 193.7,872.5 481.8,436.5 126.2,103.1 285.3,88.8 416.2,-12.9 96.7,106.8 238.3,142.3 376.7,118.8 -4.8,57.2 -4.9,178.5 -19.1,227.3 31.5,5 81,-7.8 109.5,7 -262.6,270.4 -97.7,1194.6 224.9,857.5 213.5,733.5 635.4,403.6 674.2,-205.8 433.2,415.1 514.8,-47 502.5,-458.9 237.8,38.1 420.7,-111.8 427.7,-349.9 60.4,-8.3 242.7,14.7 299,34.9 -56.9,314.7 302.6,820.4 555.4,432.2 12.7,143.5 95.1,264.9 224.7,329.9 132.4,-113.6 134.5,-315.9 131.8,-486.3 280.1,-17.3 678.9,-142.8 328.6,-500.3 296,251 397.5,-118.1 404.5,-385.8 105.9,82.1 244.8,111.6 372,73.3 43.8,317.8 399.9,437.1 595.4,163.5 -108.9,451.6 460.1,424.4 472.4,-43.1 157.3,192.5 354.7,113.9 388.7,-124.9 241.2,18.5 309.5,77 648.4,-92.6 18.9,-9.4 6.1,-41 -15,-42.8 -70.3,-6.1 -193.8,-2.2 -275.4,47.4 z"
         id="path7175" />
    </clipPath>
    <linearGradient
       x1="0"
       y1="0"
       x2="1"
       y2="0"
       gradientUnits="userSpaceOnUse"
       gradientTransform="matrix(-301.505,-2759.93,-2759.93,301.505,20637.6,20901)"
       spreadMethod="pad"
       id="linearGradient7185">
      <stop
         style="stop-opacity:1;stop-color:#ffffff"
         offset="0"
         id="stop7179" />
      <stop
         style="stop-opacity:1;stop-color:#ffffff"
         offset="0.217877"
         id="stop7181" />
      <stop
         style="stop-opacity:1;stop-color:#97dce2"
         offset="1"
         id="stop7183" />
    </linearGradient>
    <clipPath
       clipPathUnits="userSpaceOnUse"
       id="clipPath7195">
      <path
         d="m 5365.76,16079.2 c -134.75,-8.2 -334.42,86.4 -411.26,195.6 127.51,81.9 523.48,-163.8 403.45,161.9 84.73,62.6 195.96,113.6 216.79,-25.5 102.63,95.7 516.63,1.4 545.46,153.1 -2.62,-13.7 -647.1,408.7 -222.94,467.5 -68.24,60.2 337.32,782.6 472.29,162 55.3,140.6 378.58,52.6 281.6,261.2 -49.14,105.7 -290.49,95.5 -363.4,223.2 -73.09,127.9 -44.09,355.8 121.26,371.5 -11.72,181.8 133.8,278.1 276.15,167.5 115.67,-90 97.66,-289.7 138.35,-407.9 80.26,219.5 484.12,500.7 482.25,101.1 68.02,90.7 170.08,20.5 228.08,-75.7 33.2,49.1 83.29,114.3 127.24,165.4 -136.69,171.1 -324.76,289.7 -222.53,534.4 58.58,140.2 341.58,387.3 376.75,111.2 -34.82,162.2 216.94,318.4 363.22,266.8 142.86,-50.3 163.37,-223.7 186.03,-357.5 196.47,140.4 126,-343.5 375.48,-158.5 -171.59,252.1 -57.51,634 207.13,784.1 108.01,61.3 314.98,90 323.27,-26.1 96.64,131.4 257.16,114.7 334.99,-20.2 68.21,-118.3 7.81,-319.3 -31.69,-440.3 405.48,110.2 320.38,-618 74.87,-756.9 422.1,4.9 352,-214.8 227.02,-545 100.22,122.1 488.98,232.3 390.68,-21.9 -11.2,182 334.3,195.6 448.1,133.5 -59.8,204.7 -23.5,359.9 147.2,503.8 102.1,86 386.9,248.3 414.2,19.6 80.5,286.2 426.6,-102.3 197.1,-351.5 161,50.3 623.5,-84.9 372.7,-310.5 255.1,-8.9 540.9,167.3 792.8,72.1 108.4,229.9 453.1,150.4 631.4,83.3 121.2,155.8 400.4,126 238.4,-98.3 -90.2,-124.8 -238.6,-145.8 -372,-176.4 -204.9,-47 -408.5,-8.4 -613.4,-48.9 1.3,-4.7 1.9,-10.5 2.1,-17 3.1,-89.2 -63.8,-164.6 -151.5,-181.3 -388.7,-74 -778.5,106.5 -1103.1,-33 -441.3,-189.6 -924.9,-523.2 -1421.34,-307.5 -252.71,109.7 -172.06,108.2 -407.73,31.4 -240.53,-78.4 -371.08,-68.5 -619.6,-5.8 -77.72,19.7 -213.57,32 -283.17,59 -140.21,54.2 -253.26,283.5 -451.8,174.8 -57.49,-31.4 -83.52,-141.1 -127.95,-192.1 -89.95,-103.4 -174.47,-134 -290,-192.3 -250.95,-126.7 -344.79,-194.6 -569.73,-130.1 -165.01,47.4 -127.48,65.2 -278.63,35 -163.08,-32.5 -262.93,-184.7 -422.87,-199.6 -150.77,-14.1 -244.86,83.2 -407.26,37.8 -115.67,-32.4 -204.2,-156.8 -317.63,-186.6 -131.17,-34.5 -227.56,49.6 -350.92,20.9 -14.9,48.8 -23.48,98.8 44.09,-31.3 z"
         id="path7193" />
    </clipPath>
    <linearGradient
       x1="0"
       y1="0"
       x2="1"
       y2="0"
       gradientUnits="userSpaceOnUse"
       gradientTransform="matrix(6053.3,208.734,208.734,-6053.3,4566.5,17561.1)"
       spreadMethod="pad"
       id="linearGradient7203">
      <stop
         style="stop-opacity:1;stop-color:#97dce2"
         offset="0"
         id="stop7197" />
      <stop
         style="stop-opacity:1;stop-color:#ffffff"
         offset="0.782123"
         id="stop7199" />
      <stop
         style="stop-opacity:1;stop-color:#ffffff"
         offset="1"
         id="stop7201" />
    </linearGradient>
  </defs>
  <sodipodi:namedview
     id="namedview6831"
     pagecolor="#ffffff"
     bordercolor="#666666"
     borderopacity="1.0"
     inkscape:showpageshadow="2"
     inkscape:pageopacity="0.0"
     inkscape:pagecheckerboard="0"
     inkscape:deskcolor="#d1d1d1"
     showgrid="false"
     inkscape:zoom="0.07689786"
     inkscape:cx="5409.7734"
     inkscape:cy="1280.9199"
     inkscape:window-width="1920"
     inkscape:window-height="992"
     inkscape:window-x="-8"
     inkscape:window-y="-8"
     inkscape:window-maximized="1"
     inkscape:current-layer="g6837">
    <inkscape:page
       x="0"
       y="0"
       id="page6835"
       width="5733.3335"
       height="3200" />
  </sodipodi:namedview>
  <g
     id="g6837"
     inkscape:groupmode="layer"
     inkscape:label="Page 1"
     transform="matrix(1.3333333,0,0,-1.3333333,0,3200)">
    <g
       id="g6839"
       transform="matrix(0.15464615,0,0,0.10905562,-1394.7072,-95.285081)">
      <path
         d="M 0.0429688,24000 H 42999.9 V 0 H 0.0429688 v 24000"
         style="fill:url(#linearGradient6849);fill-opacity:1;fill-rule:nonzero;stroke:none"
         id="path6851" />
      <g
         id="g6853">
        <g
           id="g6855"
           clip-path="url(#clipPath6859)">
          <path
             d="m 0.0429688,4695 c 0,0 3814.8770312,728.8 4496.6270312,728.8 681.74,0 1415.93,-260.2 1678.14,-364.3 262.21,-104.2 1153.73,1041.1 1887.91,1041.1 734.19,0 2254.98,-728.8 3146.58,-702.8 891.5,26 5731.4,1743.9 6929.9,1900.1 1198.6,156.2 1618.1,468.5 1932.8,572.6 314.6,104.1 1992.8,-156.1 3880.7,-1249.3 1887.9,-1093.2 1730.6,-239.2 3618.5,-327.9 1887.9,-88.6 2453.3,-505.1 4242.1,-765.3 1788.7,-260.3 1998.5,-156.2 4410.8,-104.2 2412.4,52.1 2569.7,-156.1 3828.3,-364.3 1258.6,-208.3 2874.8,624.6 2874.8,624.6 l 72.7,63.7 V 3512.9 H 0.0429688 V 4695"
             style="fill:url(#linearGradient6865);fill-opacity:1;fill-rule:nonzero;stroke:none"
             id="path6867" />
        </g>
      </g>
      <g
         id="g6869">
        <g
           id="g6871"
           clip-path="url(#clipPath6875)">
          <path
             d="M 43000,4695.1 V 3512.9 l -21597.1,-138.4 -4641.9,-29.7 -150.2,-1 -6003.6,-38.5 L 0,3237.4 v 2238.5 c 0,0 2136.79,-327.5 3500.23,-1145.3 1363.56,-817.7 3513.67,156.2 4929.61,572.7 1415.95,416.4 2150.16,572.6 3461.16,1197.3 1311.1,624.7 2150.1,1197.3 2674.5,1197.3 524.1,0 1339.1,-403.9 1471.5,-364.9 0.1,0.2 0.2,0.2 0.2,0.2 131.7,39.4 402.1,263.5 926.5,419.8 28,8.2 57.9,14.5 89.6,18.7 561.3,75.1 1676.5,-471.4 2585,-823.4 1261.9,-488.9 1597,-637.5 1861.8,-611.3 166.5,16.5 305.3,102.1 629.2,215.6 839.1,294.3 1980.7,520.6 2452.7,676.8 67.6,22.4 152.4,28.3 251.7,20.4 593.7,-47.8 1704,-596.9 2737.5,-1147.6 1206.1,-642.8 4562.4,242.2 5191.7,398.4 629.3,156.1 3146.5,-728.8 4247.8,-1041.2 1101.4,-312.3 5989.3,-364.3 5989.3,-364.3"
             style="fill:url(#linearGradient6881);fill-opacity:1;fill-rule:nonzero;stroke:none"
             id="path6883" />
        </g>
      </g>
      <g
         id="g6885">
        <g
           id="g6887"
           clip-path="url(#clipPath6891)">
          <path
             d="m 16761,3344.8 -6153.8,-39.5 c -193.5,120.4 -2036.58,-47 -1772.03,40.3 3233.93,1066.5 7170.43,3570.2 7201.83,3587.4 0.1,0.2 0.2,0.2 0.2,0.2 131.7,39.4 402.1,263.5 926.5,419.8 28,8.2 57.9,14.5 89.6,18.7 -623.2,-1048 -452.6,-2963.4 -292.3,-4026.9"
             style="fill:url(#linearGradient6897);fill-opacity:1;fill-rule:nonzero;stroke:none"
             id="path6899" />
        </g>
      </g>
      <g
         id="g6901">
        <g
           id="g6903"
           clip-path="url(#clipPath6907)">
          <path
             d="m 42999.9,5197.5 c 0,0 -11809.5,-1126.2 -17211,-2687.9 7341.9,0 17211,-747.5 17211,-747.5 v 3435.4"
             style="fill:url(#linearGradient6913);fill-opacity:1;fill-rule:nonzero;stroke:none"
             id="path6915" />
        </g>
      </g>
      <g
         id="g6917">
        <g
           id="g6919"
           clip-path="url(#clipPath6923)">
          <path
             d="M 24833.7,6849.8 C 23248.4,5893.3 22092.5,4430.7 21402.9,3374.5 l -4641.9,-29.7 -150.2,-1 c 1952.1,1153.6 2505.8,1310.8 4174.6,2203.1 360.1,192.6 730.4,365.8 1109.8,517.5 66.6,26.6 143,56.3 234.1,88.2 839.1,294.3 1980.7,520.6 2452.7,676.8 67.6,22.4 152.4,28.3 251.7,20.4"
             style="fill:url(#linearGradient6929);fill-opacity:1;fill-rule:nonzero;stroke:none"
             id="path6931" />
        </g>
      </g>
      <g
         id="g6933">
        <g
           id="g6935"
           clip-path="url(#clipPath6939)">
          <path
             d="M 0.0429688,3948.1 C 0.0429688,3948.1 19731.3,4576.9 28056.4,2440.5 9740.87,2440.5 0.0429688,2755.2 0.0429688,2755.2 v 1192.9"
             style="fill:url(#linearGradient6945);fill-opacity:1;fill-rule:nonzero;stroke:none"
             id="path6947" />
        </g>
      </g>
      <g
         id="g6949">
        <g
           id="g6951"
           clip-path="url(#clipPath6955)">
          <path
             d="m 40295.2,1473.7 c 0,0 -8318.9,3628.4 -23160,1281.5 13856.8,-1281.5 23160,-1281.5 23160,-1281.5"
             style="fill:url(#linearGradient6961);fill-opacity:1;fill-rule:nonzero;stroke:none"
             id="path6963" />
        </g>
      </g>
      <g
         id="g6965">
        <g
           id="g6967"
           clip-path="url(#clipPath6971)">
          <path
             d="m 42999.9,2416 c 0,0 -26756.2,-808.3 -32629.7,-346.4 C 4496.67,2531.5 0.0429688,4090.6 0.0429688,4090.6 V 0 H 42999.9 v 2416"
             style="fill:url(#linearGradient6977);fill-opacity:1;fill-rule:nonzero;stroke:none"
             id="path6979" />
        </g>
      </g>
      <g
         id="g6981">
        <g
           id="g6983"
           clip-path="url(#clipPath6987)">
          <path
             d="M 0.0429688,0 V 2334.3 C 0.0429688,2334.3 16483.4,3903.1 29616.4,2022 41397.2,334.602 42999.9,0 42999.9,0 H 0.0429688"
             style="fill:url(#linearGradient6993);fill-opacity:1;fill-rule:nonzero;stroke:none"
             id="path6995" />
        </g>
      </g>
      <g
         id="g6997">
        <g
           id="g6999"
           clip-path="url(#clipPath7003)">
          <path
             d="m 19310.7,15587.7 c 71.5,-159.1 622.3,-120.4 747.4,-114.1 80.6,4 344.8,52.1 416.4,76.7 90.8,31.2 261.5,189.4 345.2,89.6 50.8,-60.5 120.8,-102.6 199.7,-104.6 108,-2.6 212.5,28.5 318.3,57 63.7,17.2 122.5,68 194.9,60.4 61.5,-6.5 71.1,-84.6 116.4,-92.3 118.2,-20.1 192.4,-56.7 291.9,46.2 97.8,-107.3 221.2,-138.7 352.6,-144.7 81.2,-3.7 160.6,17.8 234.1,52.4 203.4,96 822.3,55.8 955.8,42.8 195.1,-18.9 382.9,64.5 580.9,31.1 131.6,-22.3 189.9,-63.9 240.7,-130.3 75.7,-99.2 203.3,-139.3 324.6,-110.3 18.6,4.5 36.6,7.1 53.8,7.2 118.8,0.1 77.5,-49.7 155.2,-63.2 140.6,-24.5 274.5,-85.4 413.8,0.7 132.6,81.9 130.6,139.5 96,220.5 -43.9,102.5 42.9,213.4 153.4,198.5 l 2.4,-0.3 c 1,-3.9 1.7,-7.7 2.2,-11.5 2.8,-23.6 20.6,-41.8 44.2,-44.6 43.4,-5 88.6,-24.6 124.4,-23.5 -27.6,-212.5 217.3,-222.4 359.2,-176.3 33.7,11 38.3,88 95.9,110.6 96,37.8 219.9,-13.8 303.5,-40.7 122.4,-39.4 472.7,-208.4 681.8,-159.1 47.3,11.1 59.6,73.1 19,99.9 -85.2,56.1 -234.2,64.5 -303.5,101.9 -335.9,181.4 -330.9,703.1 -789.1,674.1 -134.7,-8.5 -272.5,-77.4 -370.6,-148.2 -40,-28.9 -2.8,-118.3 -103.7,-131 -205.6,-26.1 -265.8,177.4 -302,312.9 -70.8,264.6 -522.6,123.6 -522.6,123.6 0,0 -173.9,490 -458.9,179.9 -223.7,66.2 -752.3,93.7 -696.7,-253.6 -196.5,212.5 -313.1,-42.9 -460.6,-82.3 -191.2,-51.1 -387,205.1 -518.6,-63.4 -26.5,-54.2 -12.9,-171.1 -8.6,-230.3 -172.8,-77.7 -596.6,380.7 -695.8,19.7 -9.8,7.6 -19.8,14.9 -29.9,22 -164.6,114.9 -407.9,35.8 -451.6,-160.1 -14.4,-64.4 -99.2,-82.2 -230.6,-44.1 -182.5,52.7 -128,85.7 -270.3,177.3 -127.9,82.4 -370.2,87.4 -342.3,-118.8 -53,-3.4 -104.6,-11.6 -155,-24.5 -63.6,-16.4 -73.9,-102 -15.3,-131.5 l 1.9,-0.9 c -242.5,-215.8 -176.3,-29.2 -382.8,-9.2 -120.1,11.6 -168.7,-98.8 -267.7,-119.2 -98,-20.3 -144.9,73.9 -243.8,4.2 -75.3,122.1 -266.2,230.2 -205.6,23.4"
             style="fill:url(#radialGradient7009);fill-opacity:1;fill-rule:nonzero;stroke:none"
             id="path7011" />
        </g>
      </g>
      <g
         id="g7013">
        <g
           id="g7015"
           clip-path="url(#clipPath7019)">
          <path
             d="m 27409,14323.2 c -134.5,11.8 -317.9,135 -377.7,254.4 138.2,62.1 493.3,-239.7 423,100.2 93.1,49.3 210.7,83.3 210.6,-57.4 115.7,79.4 511.1,-75.3 562.1,70.4 -4.6,-13.2 -579.2,500.3 -151,495.5 -58.6,69.6 449.7,723.8 491.1,90.1 75.6,130.8 382.2,-4.2 317.3,216.5 -33,111.8 -273.1,137.5 -326.3,274.6 -53.3,137.4 9.2,358.4 175.1,349.4 15.4,181.5 173.6,255.2 297.9,124.6 101.1,-106.1 53.6,-300.9 76.3,-423.8 112,205.1 553.1,423.2 491.9,28.3 80.7,79.6 171.3,-5 214.3,-108.7 40.2,43.6 99.4,100.7 150.4,144.6 -109.8,189.6 -278.1,334.7 -140.7,561.5 78.7,130 395.3,332.4 389.1,54.1 -10.4,165.6 261.8,282.7 398.8,210 133.8,-71 128.3,-245.6 130.9,-381.2 215.1,109.6 73.6,-358.4 347.8,-212.5 -132.3,274.7 37.2,635.5 321.2,744.6 115.9,44.6 324.9,42.3 315.8,-73.8 115.1,115.6 271.4,75.3 328.3,-69.7 49.9,-127.1 -39.7,-317 -96.7,-430.7 417.3,48.8 225.1,-658.7 -38.4,-759.6 418.2,-57.8 316.2,-264.7 143.6,-572.7 117.3,105.9 518.1,157.1 383.2,-79.6 15.9,181.6 359.6,143.7 462.9,65.4 -28.7,211.4 30.2,359.4 220.4,476.4 113.7,69.9 419.5,188.1 412.5,-42.1 122.1,271.1 406.6,-164.5 142.7,-376.8 166.7,25.8 604,-176.6 322.5,-362.5 250.9,-46.6 559.7,85.2 794.7,-46.4 141.3,211.3 470.4,81.5 636.8,-11.4 142.9,136.2 414.7,65.2 221.1,-132.6 -107.7,-110 -257.6,-108.7 -394.1,-119.1 -209.5,-16.1 -405.2,52.3 -613.8,42.6 0.6,-4.8 0.3,-10.6 -0.4,-17.1 -10.2,-88.7 -87.6,-153.3 -176.8,-156.8 -395.4,-15.5 -754.1,220.9 -1095.8,131.2 -464.5,-122 -992.2,-380.1 -1451.2,-93.1 -233.6,146 -154.1,132.5 -398.5,91.6 -249.5,-41.8 -377.2,-12.7 -613.6,86.3 -74,30.9 -206.5,63.3 -271.3,100.3 -130.6,74.5 -208.4,318 -420.8,240 -61.6,-22.6 -103.6,-127.1 -155.1,-171.1 -104.3,-88.8 -192.4,-106.5 -315.3,-147 -267,-88 -369.9,-141.2 -582.8,-44 -156.1,71.3 -116.4,83.3 -270.3,75.9 -166.1,-8 -287.5,-143.6 -447.8,-134.6 -151.2,8.4 -229.8,118.6 -397.2,97.8 -119.2,-14.8 -225.2,-124.8 -341.8,-137.4 -134.8,-14.6 -217.6,82.9 -343.9,72.8 -7.5,50.5 -8.6,101.2 39,-37.4"
             style="fill:url(#linearGradient7027);fill-opacity:1;fill-rule:nonzero;stroke:none"
             id="path7029" />
        </g>
      </g>
      <g
         id="g7031">
        <g
           id="g7033"
           clip-path="url(#clipPath7037)">
          <path
             d="m 9920.84,14280 c -108.2,19.8 -189.23,141.9 -295.05,158.8 -90.5,14.4 -194.4,-42.3 -295.06,-53.4 -249.68,-27.8 -445.73,111.9 -669.73,105.3 -193.46,-5.6 -114.5,-126.6 -257.67,-163.8 -121.89,-31.7 -232.74,50.9 -380.37,22.2 -83.9,-16.4 -988.76,-112.5 -770.12,140 92.39,106.7 453.97,-46 581.94,-3 136.69,46 239.53,327.7 458.52,175 194.35,374.8 536.43,489.8 677.57,57.8 188.67,8.4 262.71,191.4 470.31,51.7 -95.55,332.3 497.91,234.7 582.52,-2.8 -20,143.3 -62.75,344.2 62.4,459.8 109.8,101.4 317.9,98.2 401.5,-17.8 92.3,193.5 439.4,112 570.7,22.4 25,100.2 105.1,171.1 191.2,181.2 -247.8,-1 -579.9,160.5 -697.6,401.5 -107.9,220.8 41.1,356.5 274.1,284.1 -5.9,373.4 368.7,196.6 487.9,18.5 -64.5,259.4 383.4,282.7 457.8,81.9 46.7,114.7 179.8,152.4 298.1,147.7 -239.2,280.3 167.9,703.8 294.6,418.2 -147.4,154 57.5,345.5 231,212.2 140.6,102.9 299.6,84.4 465.1,84.5 -17.8,89.4 0.5,185.1 83.7,211.1 -489.8,-123.5 -145.2,938.3 93.1,586.1 30,478.6 679.5,748 536.8,72.9 131.2,261.2 224.5,-383.7 173.6,-520.7 298.5,241.9 593.3,-334.6 332.9,-551.1 -5.1,241.1 330.9,438 531.2,469.5 239.7,37.7 589.8,-205.1 380.8,-438.1 -68.4,513.2 1170.6,897.7 930.8,108.2 0.1,0.2 0.3,0.4 0.4,0.5 20.3,24.2 60.1,12 67.5,-18.7 15.7,-64.4 -9.1,-131.6 -55.1,-189.5 153.1,-25.7 569.3,-352.9 273.2,-488.7 157.8,14.4 353.7,-8.8 357.7,-189.5 367.5,71.3 290.6,-271.3 121.9,-442.3 124.1,26.5 303.8,85 392.4,-41.7 74.1,-106 -12.9,-289.8 -96.2,-361.3 130.6,33.1 243.1,-41.5 362,-61.8 45.4,195.1 263.8,498.8 486.1,320.8 62.4,83.4 238.8,149 404.1,164.8 146,14.1 244.9,-148.1 166.1,-271.9 -27.8,-43.6 -47.7,-89 -41.4,-143.5 134.2,97.6 266.9,-30.2 322.3,-153.7 0,0 0,0 0,0 52.1,10.9 103.7,-17.9 115.8,-69.6 3.6,-15.7 5.5,-32.1 4,-49.4 193.7,207.9 841.3,126.5 654.3,-209.2 168.8,157.3 814.7,121.6 563.5,-116.9 104,-27.7 251.8,73.4 301.4,-86.3 140.9,26.7 280.4,122.9 427.5,95.3 11.6,-25.1 15.8,-51.5 12.6,-79 114.1,-22.3 393.8,6 272.9,-149.4 -110.1,-141.4 -578.9,-37.1 -728.4,-69.3 -206.6,-44.6 -353.9,-134.8 -585.2,-130.4 -202.7,3.8 -328.5,76.3 -499,114 -180.4,39.9 -390.3,22 -578.3,50.7 -241,36.8 -268.8,-6.3 -457.4,-97.1 -509.1,-245.2 -859,173.2 -1369.4,122 -312.3,-31.4 -574,30.6 -876,110 -212.5,55.9 -227.6,121 -425.7,66.6 -237.4,-65.2 -507.7,-315.1 -769.5,-283.3 -223,27 -264.2,178.6 -531.9,155.8 -306.7,-26.1 -490.5,-36.3 -710.6,219.7 -189.7,-461.7 -563.4,-369.3 -964.9,-358.8 -118.7,3.1 -94.5,-63 -258.4,-27.3 -119.1,26 -209,168.2 -323.4,195 -329.6,77.2 -386.4,-320.5 -670.4,-311.3 -104.6,3.4 -196.5,129.8 -292.3,156.4 -140,38.9 -116.2,13 -242.4,2.4 -134.6,-11.3 -237.6,-19 -375.7,-13 -153.1,6.7 -505,-12.4 -635.28,-93.2 -32.69,46.5 -46.84,99.8 -21.38,12.2"
             style="fill:url(#linearGradient7045);fill-opacity:1;fill-rule:nonzero;stroke:none"
             id="path7047" />
        </g>
      </g>
      <g
         id="g7049">
        <g
           id="g7051"
           clip-path="url(#clipPath7055)">
          <path
             d="m 22528.2,16941.8 c -162.6,-46.7 -241.7,-35.5 -409.2,-58 -225.1,-30.4 -312.4,-183 -538.2,-158.1 -149.6,16.6 -309.1,89.5 -484,53.7 -210.4,-43.1 -340.9,-226.8 -499.9,60.5 -157.3,-93.2 -331.5,-147.7 -490.7,-60.9 -45.3,24.7 -48.1,102.9 -99.5,126.2 -71.9,32.5 -157.9,-24.1 -245,-24.6 -28.8,-237.3 -254.8,-11.5 -345.1,-1.1 -98.3,11.3 -287.2,-28.8 -385.1,-58 -58.6,-17.5 -79.2,-106.8 -136.6,-109.4 -73.2,-3.3 -166.7,95.8 -237.4,114.6 -125.7,33.6 -349.6,-39.5 -372.1,139.3 91.2,13 191.7,-4.8 268.2,-37.7 -1.8,141.6 105,473.4 261.4,236.8 68.4,56 154.8,48.2 225.8,-7 52.5,58 129.3,77.2 204.4,64.5 -2.6,31 -2.6,96.8 -10.4,123.3 17.1,2.7 44,-4.2 59.5,3.8 -142.5,146.7 -53,648.2 122,465.3 115.9,398 344.8,219 365.9,-111.7 235,225.3 279.3,-25.5 272.6,-249 129,20.7 228.3,-60.7 232.1,-189.8 32.8,-4.6 131.7,7.9 162.2,18.9 -30.8,170.8 164.2,445.1 301.4,234.5 6.9,77.9 51.6,143.8 121.9,179 71.9,-61.6 73,-171.4 71.6,-263.8 152,-9.5 368.4,-77.5 178.3,-271.5 160.6,136.2 215.7,-64.1 219.5,-209.4 57.4,44.6 132.8,60.6 201.8,39.8 23.8,172.5 217,237.2 323.1,88.8 -59.1,245 249.6,230.2 256.3,-23.4 85.4,104.4 192.5,61.7 211,-67.8 130.8,10 167.9,41.8 351.8,-50.3 10.2,-5.1 3.3,-22.2 -8.2,-23.2 -38.1,-3.3 -105.1,-1.2 -149.4,25.7"
             style="fill:url(#radialGradient7061);fill-opacity:1;fill-rule:nonzero;stroke:none"
             id="path7063" />
        </g>
      </g>
      <g
         id="g7065">
        <g
           id="g7067"
           clip-path="url(#clipPath7071)">
          <path
             d="m 22982.8,17353.9 c 43.1,-6.7 87.3,-5.6 130.8,-1.9 132.7,11.1 206.9,-31.5 365.9,-84.5 153.2,-51.1 300,-4.3 462.5,-36 111.7,-21.7 82.5,-56.8 189.3,-52.4 47,1.9 283.5,48.4 317.5,71 95.8,63.5 58.2,197.2 203,257 98.4,40.6 224.6,31.2 279,-49.9 29.4,-43.8 78.5,-69.7 130.6,-77.7 238.3,-36.7 730.9,-271.9 827.3,-151.3 29.1,36.4 71,60.7 117.4,56.4 85.5,-8 165.6,-28.2 259,-12.3 88,14.9 123.6,85.8 222.5,80.8 98.5,-4.9 126.2,-87.2 210.2,-103 130.4,-24.6 547,0 556.7,183 0.1,0.3 0.4,0.6 0.7,0.4 47,-23.7 128.1,-104.6 194.2,-112.4 117.7,-13.8 148.5,93.7 261.6,112.8 124.4,21 132.4,-55.1 230.2,-83.2 75.5,-21.7 142.4,-9.1 211.4,-24.3 177,-38.8 266.6,-30.6 446.7,-40.5 109.4,-6.1 175.6,-68.7 299.3,-56.4 42.1,4.2 55.4,71.8 132.1,59.4 218,-35.2 45.2,-101.3 170.5,-210.9 258.8,-226 379.2,180.4 471.6,234 106.4,61.8 801.2,-235 887.6,-5 23.9,63.6 -34.5,128.3 -100.8,114.1 -85.6,-18.3 -180.7,-46.1 -247.6,-26.2 -61.3,18.2 -72.3,113.5 -98.5,123.9 -75.1,29.7 -146.1,4.1 -229.3,22.3 -237.1,51.9 -779.1,588.5 -845.4,45.6 0,-0.2 -0.1,-0.4 -0.3,-0.4 -32.4,-11 -65.6,-21.9 -97.5,-20.6 -0.2,0 -0.4,0.2 -0.5,0.4 -41.8,165.7 -342.1,267.5 -446,129 -0.3,-0.3 -0.7,-0.3 -0.8,0.1 -3.7,7.2 -7.8,14.2 -12.1,21 -19.2,29.6 -62.1,31.1 -84.3,3.8 v 0 c 6.6,263.1 -408.9,145.9 -412.2,145 -0.1,0 0,0 0,0 -2.1,3.2 -267.8,400.2 -367.9,-7.2 0,-0.3 -0.4,-0.5 -0.6,-0.4 -89,27 -86.4,-9.1 -155.1,-63.6 -0.2,-0.2 -0.4,-0.2 -0.6,0 -101.5,113.9 -537.4,473.5 -546.4,72 0,-0.5 -0.7,-0.9 -0.8,-0.4 -30.7,105.3 -130.5,606 -338.1,314.9 -0.3,-0.5 -1.1,-0.3 -1,0.3 13.7,87.8 87.2,207.5 66.9,294.4 -46.2,197.4 -284.1,214.6 -415.3,78.3 -0.4,-0.4 -0.9,0 -0.6,0.5 214,335 -601.8,561.5 -530.5,109.3 0.1,-0.6 -0.6,-0.8 -0.9,-0.3 -179.5,282.9 -323.7,-55.7 -254.7,-255 0.2,-0.4 -0.3,-0.7 -0.7,-0.5 -343.5,143.1 -167.1,-156.9 -116.2,-326.5 16.1,-53.7 -53.6,-93.5 -90.4,-51.2 -53.7,61.7 -58,176.3 -134.6,238.4 -158.5,128.5 -378.6,40 -334.4,-174 0.1,-0.5 -0.5,-0.8 -0.8,-0.4 -86.4,113.6 -255.4,253 -407,160 -96.3,-59.2 -144,-209.5 -37.3,-270.8 v 0 c -58.1,0.2 -98.9,-57.7 -86,-114.1 18.7,-82 45,-183.5 24.2,-212.4 -60.7,-84.6 -190.7,-18.5 -284.3,52.1 -45.4,34.3 -110.5,30.5 -149.5,-11 -75.2,-80 -158.8,21.3 -278.1,29.1 -67.4,4.4 -285.8,-86.6 -366.8,-111 -57.1,-17.2 -50.7,-84.7 -101.7,-97.7 -59.5,-15.1 -131.5,25.4 -191.1,1.2 -34.1,-13.8 -62.4,-29.7 -86.4,-48.6 -57.3,-45.2 -16.1,-138 56.3,-128.9 58,7.3 105.4,16 128.1,12.4"
             style="fill:url(#radialGradient7077);fill-opacity:1;fill-rule:nonzero;stroke:none"
             id="path7079" />
        </g>
      </g>
      <g
         id="g7081">
        <g
           id="g7083"
           clip-path="url(#clipPath7087)">
          <path
             d="m 22009.3,23067.6 c -89.1,20.4 -377.6,364.4 -487.8,-2.4 -220,100.8 -401.7,-99.6 -332.5,-311.7 -230.5,44.9 -215.2,-240.1 -175.9,-383.8 -93.9,148.2 -526.4,220.3 -535.5,-34.3 -207.8,18.6 -188.8,-247.3 -110.8,-373.9 -175.1,83.7 -478.6,40.5 -462.4,-206.4 57.8,486.2 -757.1,653.7 -940.4,220.4 -4.7,175.2 -35,788.5 -380.8,544.2 -10.7,254.4 -297.1,192.5 -304.3,-40.8 -239.1,2 -460.9,-404.9 -253.5,-550 -0.5,0.7 -1,1.3 -1.5,1.9 -63.6,77.9 -188.6,47.1 -214.7,-49.9 -17.2,-64.1 -19.8,-134.2 -20.5,-199.7 -310.2,34.4 -754.4,128.9 -730.5,-356.8 -93.5,127 -221.7,159.4 -400.5,173.7 -104.9,8.3 -240.9,-43.3 -290.4,52.6 -36.9,71.5 4.6,159.1 81.5,182.8 94.6,29.3 174.9,65 190.4,184.3 15.3,117.6 -57.3,228.7 -173.9,246.8 267.5,171.1 -115.5,293.3 -292,289.3 -109.9,321.2 -480.7,409 -580.5,45 -313.6,102.5 -602,-57.9 -396.9,-420.6 107.7,-190.5 488.4,-416.9 231.2,-542.6 -76.4,-37.3 -166,-32.8 -242.1,4.9 -83.7,41.5 -176.3,66.8 -256.7,21.8 -155.3,-86.9 -163.8,-339.9 0.6,-412.8 -241.5,18.3 -161.4,-250.7 0.7,-322 -185.8,-12.3 -647.7,127.2 -523.2,-260.4 -111.4,80.6 -193.3,58.3 -259.4,-3.8 -120.1,-113 -114.8,-306.7 5,-419.9 4.2,-3.9 8.3,-7.9 12.5,-11.8 -48.6,5.6 -88.2,14 -126.9,30 -59.1,24.4 -128.2,12.3 -169.5,-36.4 -3.3,-3.9 -5.9,-7.5 -7.6,-10.7 -66.8,40.7 -121.3,167.7 -178.7,192.9 -185.5,81.2 -487.2,-168.4 -391,-379.1 -168.6,93.7 -616.1,154.8 -572.9,-148.4 -245.7,92.9 -442.3,-137.4 -442.3,-137.4 0,0 -535.1,169.6 -476.3,-107.9 -202.1,22.3 -280.6,208 -502.9,120.1 -0.9,-0.4 -1.9,-0.8 -3,-1.2 -154.2,-64.5 -88.1,-297.4 77.1,-271.7 174.5,27.2 348.4,42.4 508,-1.5 134.3,-37 193.2,-106.8 331.5,-106.5 114,0.3 176.1,62.6 304.1,48 201.4,-22.9 395.4,-94.3 598.9,-52 157.1,32.7 279.3,111.8 424.5,196.1 225.7,131 197.4,163.8 473.1,22.6 345.2,-176.7 574.2,52.1 887.6,-30.1 188.1,-49.3 662.8,-296.8 855.9,-185.1 93.6,54.1 123.6,140.3 138.6,233.9 35.2,220.2 243.1,374.1 462.4,333.4 6,-1.1 12.2,-2.4 18.6,-3.9 209.9,-48 252.9,-79.3 436.9,-175.6 240.8,-125.9 244.3,-80.7 472.8,85.1 138.1,100.2 -15.7,94.6 197,144.3 192.9,45.1 371.3,-139.7 515.8,-247 244.1,-181.2 369.8,-317.4 707.7,-244.5 34.6,47.5 78.1,84 130.6,109.7 90,-8.4 179.7,-5 268.9,10.2 188.5,27.4 497.2,90.2 657.2,194.3 80.4,52.3 72.3,208.8 197,221.4 175.5,17.9 154,-185.3 246.7,-269 49.6,-44.8 162.2,-101.1 226.7,-110.7 110.3,76.2 233.3,117.4 369,123.5 108.2,4.3 214.7,-6.3 319.3,-31.7 124.4,4.1 208.3,81 272.1,180.6 80.6,125.9 271.1,102 316.8,-40.3 19.8,-61.6 41.6,-107.8 67.7,-117.7 86.8,-32.9 89.1,34 191.6,33.7 236.8,-0.9 484.7,37.2 716.3,21.7 167.4,-11.3 329.8,-104.3 496.8,-94.2 124.5,7.5 247.8,115.8 386.4,117.7 182.8,2.5 383.8,-22.8 569.2,-31 161.2,-7.1 272.8,-43.4 438.9,-29.5 151,12.6 314.5,64.2 465,59.3 93.9,-3.1 193.9,-64.4 285.3,-60.7 262.9,10.8 460.8,222.5 699.4,322.5 17.8,-62.4 30.6,-125.9 38.2,-190.5 164.8,-113.4 352,24.1 540.8,-57 94.2,-114.6 212.8,-173.3 356,-176.2 174.1,-46.3 351.1,-49.3 530.9,-9.2 256.1,-6.7 868.2,-222.2 771.9,245.6 9.6,-3.7 18.4,-6.8 26.5,-9.2 91.7,-27.6 141.7,108.4 53.3,145.2 -116.9,48.6 -276.9,23.6 -385.3,-24.6 -90.8,234.7 -248,951.3 -663.8,593 1.2,295.6 -380.3,518.7 -642.4,468.9 -97.7,-18.5 -332.5,-198.8 -356.9,-316.6 -13.2,-63.6 -62.3,-114.5 -127,-120.6 -177.3,-16.9 -65.4,137.7 -178,412.7 -73.5,179.7 -571.5,633.6 -811.4,594.9 -212.9,-34.2 -172.7,-215.4 -328.9,-271.7 -64.7,-23.3 -427.9,-67.2 -497.4,-23.6 -177.1,111.3 -101.3,776.5 -511.3,474.9 105.5,194.1 -77.3,562.5 -264.4,601 -262.9,54.1 -460.1,-73.7 -512.1,-82.5 -228,-38.6 -235.4,-185.7 -251.8,-345.6 -23,-224.2 -292.3,-335.2 -459.7,-184.2 -59.4,53.6 -84.2,120.6 -58.9,267.3 26.3,153.2 190.7,347.2 15.2,463 402.1,168.2 -151.7,385.4 -163.3,605.5 -1.2,24.5 -121.4,88.2 -135.7,-1.8"
             style="fill:url(#linearGradient7095);fill-opacity:1;fill-rule:nonzero;stroke:none"
             id="path7097" />
        </g>
      </g>
      <g
         id="g7099">
        <g
           id="g7101"
           clip-path="url(#clipPath7105)">
          <path
             d="m 28826.5,14650.3 c 71.5,-159.1 622.3,-120.4 747.4,-114.2 80.6,4.1 344.9,52.1 416.5,76.8 90.7,31.2 261.4,189.4 345.2,89.5 50.7,-60.5 120.7,-102.6 199.7,-104.5 107.9,-2.7 212.4,28.4 318.2,57 63.7,17.2 122.5,68 194.9,60.3 61.5,-6.4 71.2,-84.5 116.4,-92.2 118.2,-20.2 192.4,-56.7 291.9,46.2 97.8,-107.3 221.2,-138.8 352.7,-144.8 81.1,-3.7 160.5,17.8 234,52.5 203.5,96 822.3,55.7 955.9,42.8 195,-19 382.8,64.5 580.8,31.1 131.6,-22.3 189.9,-63.9 240.7,-130.4 75.8,-99.1 203.3,-139.2 324.6,-110.2 18.6,4.4 36.7,7.1 53.8,7.1 118.8,0.1 77.6,-49.6 155.2,-63.2 140.6,-24.5 274.6,-85.4 413.9,0.8 132.5,81.9 130.6,139.5 95.9,220.4 -43.9,102.5 42.9,213.5 153.4,198.6 l 2.4,-0.4 c 1,-3.8 1.7,-7.7 2.2,-11.4 2.8,-23.7 20.6,-41.9 44.3,-44.6 43.3,-5 88.5,-24.6 124.3,-23.6 -27.6,-212.4 217.4,-222.3 359.2,-176.2 33.7,11 38.4,88 95.9,110.6 96.1,37.7 219.9,-13.9 303.5,-40.8 122.4,-39.4 472.7,-208.4 681.8,-159.1 47.4,11.2 59.6,73.1 19,99.9 -85.2,56.2 -234.2,64.6 -303.4,102 -335.9,181.3 -331,703.1 -789.2,674.1 -134.7,-8.6 -272.5,-77.4 -370.5,-148.2 -40.1,-29 -2.9,-118.3 -103.8,-131.1 -205.6,-26.1 -265.8,177.4 -302,312.9 -70.8,264.6 -522.6,123.7 -522.6,123.7 0,0 -173.8,490 -458.9,179.9 -223.7,66.2 -752.3,93.7 -696.7,-253.7 -196.4,212.5 -313,-42.8 -460.6,-82.2 -191.2,-51.1 -387,205.1 -518.5,-63.5 -26.6,-54.1 -13,-171.1 -8.7,-230.3 -172.7,-77.6 -596.5,380.8 -695.8,19.8 -9.8,7.5 -19.7,14.9 -29.9,22 -164.6,114.9 -407.8,35.8 -451.6,-160.2 -14.3,-64.3 -99.2,-82.1 -230.6,-44.1 -182.5,52.8 -128,85.7 -270.3,177.4 -127.9,82.4 -370.2,87.3 -342.3,-118.8 -53,-3.5 -104.6,-11.6 -155,-24.6 -63.6,-16.3 -73.9,-102 -15.2,-131.5 l 1.8,-0.9 c -242.5,-215.7 -176.2,-29.1 -382.8,-9.1 -120.1,11.6 -168.7,-98.8 -267.7,-119.3 -98,-20.2 -144.9,73.9 -243.8,4.2 -75.2,122.2 -266.2,230.3 -205.6,23.5"
             style="fill:url(#linearGradient7113);fill-opacity:1;fill-rule:nonzero;stroke:none"
             id="path7115" />
        </g>
      </g>
      <g
         id="g7117">
        <g
           id="g7119"
           clip-path="url(#clipPath7123)">
          <path
             d="m 31309.5,18981.4 c -108.2,19.7 -189.3,141.9 -295.1,158.8 -90.5,14.4 -194.4,-42.3 -295,-53.5 -249.7,-27.7 -445.8,112 -669.8,105.4 -193.4,-5.7 -114.5,-126.6 -257.6,-163.8 -121.9,-31.7 -232.8,50.9 -380.4,22.1 -83.9,-16.3 -988.8,-112.4 -770.1,140.1 92.4,106.7 453.9,-46.1 581.9,-3 136.7,46 239.5,327.7 458.5,175 194.4,374.8 536.4,489.8 677.6,57.8 188.7,8.4 262.7,191.4 470.3,51.7 -95.5,332.3 497.9,234.7 582.5,-2.8 -20,143.3 -62.7,344.2 62.4,459.8 109.8,101.4 317.9,98.2 401.6,-17.8 92.2,193.5 439.3,112 570.6,22.3 25,100.3 105.2,171.2 191.2,181.3 -247.8,-1 -579.9,160.5 -697.6,401.5 -107.9,220.8 41.1,356.6 274.2,284.1 -6,373.4 368.6,196.6 487.8,18.5 -64.4,259.4 383.4,282.7 457.8,81.9 46.7,114.7 179.8,152.4 298.1,147.7 -239.2,280.3 167.9,703.8 294.6,418.2 -147.4,154 57.5,345.5 231.1,212.2 140.5,102.8 299.6,84.4 465,84.5 -17.8,89.4 0.5,185.1 83.7,211 -489.8,-123.4 -145.2,938.4 93.1,586.2 30,478.6 679.5,748 536.8,72.9 131.3,261.2 224.6,-383.7 173.6,-520.7 298.6,241.9 593.4,-334.6 332.9,-551.1 -5.1,241.1 330.9,438 531.2,469.5 239.7,37.7 589.8,-205.1 380.8,-438.2 -68.4,513.3 1170.7,897.8 930.8,108.3 0.1,0.2 0.3,0.4 0.4,0.5 20.3,24.2 60.1,12 67.6,-18.7 15.7,-64.4 -9.1,-131.7 -55.2,-189.5 153.1,-25.7 569.4,-352.9 273.3,-488.7 157.7,14.4 353.6,-8.8 357.6,-189.5 367.5,71.3 290.6,-271.3 121.9,-442.3 124.1,26.4 303.8,85 392.4,-41.7 74.1,-106 -12.9,-289.8 -96.1,-361.3 130.5,33.1 243,-41.5 361.9,-61.8 45.4,195.1 263.9,498.8 486.1,320.8 62.4,83.4 238.8,149 404.1,164.8 146,14 245,-148.1 166.1,-271.9 -27.8,-43.6 -47.7,-89 -41.3,-143.5 134.2,97.6 266.8,-30.2 322.3,-153.7 v 0 c 52,10.9 103.6,-17.9 115.7,-69.6 3.7,-15.7 5.5,-32.1 4,-49.4 193.8,207.8 841.3,126.5 654.3,-209.2 168.8,157.3 814.7,121.6 563.5,-116.9 104,-27.8 251.9,73.4 301.4,-86.3 140.9,26.7 280.4,122.9 427.6,95.3 11.5,-25.1 15.7,-51.5 12.5,-79 114.2,-22.3 393.9,6 272.9,-149.4 -110.1,-141.4 -578.9,-37.1 -728.3,-69.3 -206.6,-44.6 -354,-134.8 -585.3,-130.4 -202.7,3.8 -328.5,76.3 -499,114 -180.4,39.9 -390.2,22 -578.3,50.7 -241,36.8 -268.8,-6.3 -457.3,-97.1 -509.2,-245.2 -859.1,173.2 -1369.5,122 -312.2,-31.4 -574,30.6 -876,110 -212.5,55.9 -227.5,121 -425.7,66.6 -237.4,-65.2 -507.7,-315.1 -769.5,-283.4 -223,27.1 -264.2,178.7 -531.9,155.9 -306.7,-26.1 -490.5,-36.3 -710.6,219.6 -189.7,-461.6 -563.4,-369.2 -964.9,-358.7 -118.6,3.1 -94.5,-63 -258.3,-27.3 -119.2,26 -209.1,168.2 -323.5,195 -329.6,77.2 -386.4,-320.5 -670.3,-311.3 -104.6,3.4 -196.5,129.8 -292.4,156.4 -140,38.9 -116.2,12.9 -242.4,2.4 -134.6,-11.3 -237.6,-19 -375.7,-13 -153.1,6.7 -505,-12.4 -635.3,-93.2 -32.7,46.5 -46.8,99.7 -21.3,12.2"
             style="fill:url(#linearGradient7131);fill-opacity:1;fill-rule:nonzero;stroke:none"
             id="path7133" />
        </g>
      </g>
      <g
         id="g7135">
        <g
           id="g7137"
           clip-path="url(#clipPath7141)">
          <path
             d="m 5829.77,20482.1 c 61.45,30.2 211.8,401.6 356.25,53.1 142.89,124.2 310.46,-52.3 296.99,-269.1 160.34,70.5 198.91,-211.8 195.38,-357.7 42.57,156.5 345.47,276.8 396.6,27.2 148.33,41.9 180.87,-222 146.13,-355.5 113.12,102.3 342.03,94.3 373.32,-150.6 -127.06,472.1 438.15,729.7 647.48,324 -27.13,173 -112.12,780.1 182.78,579.1 -36.69,251.6 183.1,223.2 229.07,-5.6 174.04,29.2 406.93,-346.2 281.01,-512.5 0.24,0.7 0.49,1.3 0.75,1.9 32.75,84 129.36,68 165.3,-24.7 23.73,-61.1 37.86,-129.8 49.86,-194.1 220.25,69.1 527.78,212.7 595.17,-268.2 46.01,135.7 133.85,182.2 261.84,216.5 75,20.2 183.2,-15.1 202.6,84.9 14.4,74.6 -31.2,156.1 -91.4,170.7 -74.1,18.1 -138.9,44.1 -171.04,159.7 -31.71,114.1 1.82,231.7 83.74,262.8 -225.02,137.9 33.1,301.8 162.5,318 24,328.6 279.2,457.2 415.6,110.3 210.8,136.6 449.2,11.6 362.9,-368.9 -45.3,-199.7 -283.4,-465.9 -73.8,-560.3 62.2,-28.1 126.7,-13.5 175.7,32.3 53.8,50.4 117,85.8 183.5,50.7 128.4,-67.9 178.8,-315.9 71.6,-406.4 173,45.4 161.5,-228.4 55.8,-317.1 137.6,9 450.2,198.9 427.1,-196.8 67.1,92 130.8,79.4 189.9,25.8 107.3,-97.5 137.3,-288.9 69.6,-413.9 -2.3,-4.4 -4.7,-8.7 -7,-13 34.4,11 61.9,23.7 87.3,43.9 38.8,30.8 91.4,26.7 130,-16.5 3.1,-3.4 5.6,-6.7 7.4,-9.7 41.6,47.7 59.2,178.9 96.7,210.2 121.1,101.1 384.8,-110.3 351.4,-328.7 106.6,111.5 422.4,222.6 443.9,-80.8 163,119.3 346.6,-84.9 346.6,-84.9 0,0 360.7,227.7 366.3,-52 143.5,44.8 168.3,236.6 345.8,175.4 0.8,-0.3 1.6,-0.6 2.4,-0.9 123.8,-45.9 116.3,-282.8 -8.8,-276.2 -132,6.9 -261.5,2.1 -370.3,-59.3 -91.5,-51.7 -122.3,-127.1 -223.2,-142.5 -83.2,-12.7 -139.4,41.6 -230.2,12.6 -142.9,-45.5 -272,-137.8 -427.8,-119.3 -120.3,14.3 -223.3,78.2 -343.9,144.7 -187.5,103.3 -172.6,138.8 -349,-31.5 -221,-213.3 -428,-14.1 -642.2,-130.7 -128.6,-69.9 -431.7,-367.6 -592.1,-279.6 -77.6,42.6 -114.6,124 -141.9,214.5 -64.2,212.7 -242.7,340.6 -395.5,275.5 -4.2,-1.7 -8.5,-3.7 -12.9,-5.9 -144.7,-71.2 -170.6,-106.9 -288,-222.6 -153.7,-151.4 -164.2,-107.2 -359.84,30 -118.2,82.9 -5.01,94.9 -168.91,119.6 -148.53,22.4 -246.42,-179.8 -333.08,-301.8 -146.38,-206.1 -214.3,-354.5 -473.55,-321.2 -33.52,42.8 -71.65,73.8 -114.37,93.1 -64.21,-18.5 -130.21,-25.4 -198,-20.6 -142.21,5.6 -378.42,32.2 -513.31,116.5 -67.79,42.3 -89.17,197.3 -182.33,195.6 -131.14,-2.4 -79.97,-200 -132.97,-292.9 -28.39,-49.8 -100.66,-118 -146.06,-134.8 -93.75,62.5 -190.66,89 -290.73,79.7 -79.71,-8.2 -155.51,-30.7 -227.41,-67.6 -91.43,-10.2 -166.08,56 -230.05,146.8 -80.77,114.7 -215.5,69.5 -224.01,-75.7 -3.69,-62.9 -11.54,-110.9 -28.82,-123.6 -57.55,-42.2 -70.96,23.4 -145.66,11.3 -172.56,-27.7 -360.09,-18.5 -526.31,-60.1 -120.11,-30.1 -222.38,-140.1 -345.93,-149.2 -92.12,-6.8 -200.97,85.8 -302.4,71.9 -133.78,-18.3 -275.97,-66.1 -409.84,-95.3 -116.35,-25.3 -191.37,-73.8 -314.98,-79 -112.35,-4.8 -240.62,27.4 -349.57,5.4 -67.92,-13.6 -130.17,-85.4 -197.52,-92.1 -193.61,-19.4 -374.94,166.5 -566.46,237.8 -2.14,-63.4 -0.33,-127.3 5.41,-191.8 -100.42,-130.4 -261.02,-16.3 -384.54,-117.7 -48.68,-123.5 -124.98,-194.8 -228.89,-213.9 -118.97,-65.4 -247.54,-88.5 -385.71,-69.5 -185.64,-35.8 -594.52,-317.5 -605.96,153.9 -6.34,-4.8 -12.23,-8.7 -17.72,-12.1 -62.08,-37.5 -122.27,90.6 -64.2,136.9 76.72,61.1 197.86,54.7 285.35,19.6 25.19,241.4 14.75,964.7 380.61,659.3 -52.46,290.8 186.84,553.9 386.74,534.7 74.46,-7.2 277.27,-157.9 315.62,-271 20.74,-61.2 65.42,-105.7 113.72,-104.3 132.27,3.6 23.61,143 57.71,426.5 22.29,185.2 306.24,688.6 488.02,677.9 161.28,-9.5 163.57,-192.4 287.36,-230 51.24,-15.6 323.88,-17.4 366.93,33.4 109.8,129.6 -61.69,775.9 290.03,525.6 -110.85,179 -41.83,562.5 87.95,621.7 182.28,83.1 348.48,-20.2 387.96,-23 173.03,-12 204.11,-156 244.02,-311.5 55.95,-218 271.78,-296.7 367.47,-129 33.96,59.5 40.39,128.2 -3.66,269.8 -45.98,147.8 -199.8,320.1 -91.99,454 -322.72,119.8 43.37,396.7 13.33,614.7 -3.34,24.3 73.19,100.6 99.32,13.7"
             style="fill:url(#linearGradient7149);fill-opacity:1;fill-rule:nonzero;stroke:none"
             id="path7151" />
        </g>
      </g>
      <g
         id="g7153">
        <g
           id="g7155"
           clip-path="url(#clipPath7159)">
          <path
             d="m 14599.6,13981.2 c 43.1,-6.7 87.3,-5.6 130.8,-1.9 132.6,11 206.9,-31.5 365.9,-84.5 153.1,-51 299.9,-4.3 462.5,-36 111.7,-21.7 82.5,-56.8 189.3,-52.4 47,1.9 283.4,48.4 317.5,71 95.7,63.5 58.2,197.2 203,257 98.4,40.6 224.6,31.2 279,-49.9 29.4,-43.8 78.4,-69.7 130.6,-77.7 238.3,-36.7 730.8,-271.9 827.3,-151.3 29.1,36.4 71,60.7 117.4,56.4 85.5,-8.1 165.6,-28.2 259,-12.3 88,14.9 123.6,85.8 222.4,80.8 98.6,-4.9 126.3,-87.2 210.2,-103 130.5,-24.6 547.1,0 556.8,183 0,0.3 0.3,0.6 0.6,0.4 47.1,-23.7 128.2,-104.6 194.3,-112.4 117.7,-13.8 148.4,93.7 261.6,112.8 124.3,21 132.4,-55.1 230.2,-83.2 75.4,-21.7 142.4,-9.1 211.4,-24.3 177,-38.8 266.5,-30.6 446.7,-40.5 109.4,-6.1 175.6,-68.7 299.3,-56.4 42.1,4.2 55.4,71.8 132.1,59.4 218,-35.3 45.2,-101.3 170.5,-210.9 258.7,-226 379.2,180.4 471.6,234 106.4,61.8 801.2,-235 887.6,-5 23.8,63.6 -34.5,128.3 -100.9,114.1 -85.5,-18.3 -180.7,-46.1 -247.6,-26.2 -61.2,18.2 -72.3,113.5 -98.4,123.9 -75.2,29.7 -146.1,4.1 -229.3,22.3 -237.1,51.9 -779.1,588.5 -845.4,45.6 0,-0.2 -0.1,-0.4 -0.3,-0.4 -32.4,-11 -65.6,-21.9 -97.5,-20.6 -0.3,0 -0.4,0.2 -0.5,0.4 -41.8,165.7 -342.1,267.5 -446.1,129 -0.2,-0.3 -0.6,-0.3 -0.7,0 -3.8,7.3 -7.8,14.3 -12.2,21 -19.1,29.7 -62,31.3 -84.3,3.9 v 0 c 6.7,263.1 -408.8,146 -412.1,145 -0.1,0 0,0 0,0.1 -2.1,3.1 -267.8,400.1 -367.9,-7.3 -0.1,-0.3 -0.4,-0.5 -0.7,-0.4 -88.9,27 -86.3,-9.1 -155,-63.6 -0.2,-0.2 -0.5,-0.2 -0.6,0 -101.6,113.8 -537.4,473.5 -546.4,72 0,-0.5 -0.7,-0.9 -0.9,-0.4 -30.6,105.3 -130.5,606 -338,314.9 -0.3,-0.4 -1.1,-0.3 -1.1,0.3 13.7,87.9 87.3,207.5 67,294.4 -46.2,197.5 -284.1,214.6 -415.3,78.3 -0.5,-0.4 -0.9,0 -0.6,0.5 214,335 -601.8,561.5 -530.6,109.3 0.1,-0.5 -0.5,-0.8 -0.9,-0.3 -179.4,282.9 -323.6,-55.7 -254.6,-255 0.1,-0.4 -0.3,-0.7 -0.7,-0.5 -343.6,143.1 -167.1,-156.9 -116.2,-326.5 16.1,-53.7 -53.6,-93.5 -90.4,-51.2 -53.8,61.7 -58.1,176.3 -134.6,238.4 -158.5,128.5 -378.7,40 -334.5,-174 0.1,-0.5 -0.4,-0.8 -0.7,-0.4 -86.4,113.6 -255.4,253 -407,160 -96.3,-59.1 -144,-209.5 -37.3,-270.8 v 0 c -58.1,0.2 -98.9,-57.7 -86,-114.2 18.7,-81.8 45,-183.4 24.2,-212.3 -60.8,-84.6 -190.8,-18.5 -284.3,52.1 -45.4,34.3 -110.5,30.5 -149.5,-11 -75.2,-80 -158.8,21.3 -278.1,29.1 -67.4,4.4 -285.8,-86.6 -366.8,-111 -57.2,-17.2 -50.7,-84.7 -101.7,-97.7 -59.5,-15.1 -131.6,25.4 -191.1,1.2 -34.2,-13.8 -62.4,-29.7 -86.4,-48.6 -57.3,-45.2 -16.1,-138 56.3,-128.9 58,7.3 105.4,16 128.1,12.4"
             style="fill:url(#linearGradient7167);fill-opacity:1;fill-rule:nonzero;stroke:none"
             id="path7169" />
        </g>
      </g>
      <g
         id="g7171">
        <g
           id="g7173"
           clip-path="url(#clipPath7177)">
          <path
             d="m 24247.8,19520.4 c -299.7,-86.1 -445.4,-65.4 -754.1,-107 -414.8,-55.8 -575.7,-337.2 -991.8,-291.2 -275.7,30.5 -569.6,164.9 -892,98.9 -387.7,-79.5 -628.4,-417.9 -921.3,111.5 -289.8,-171.9 -610.8,-272.2 -904.4,-112.2 -83.4,45.4 -88.5,189.6 -183.3,232.5 -132.5,59.9 -291,-44.5 -451.4,-45.3 -53.1,-437.2 -469.7,-21.2 -636,-2.1 -181.3,20.9 -529.3,-53 -709.8,-106.8 -108,-32.3 -146,-196.9 -251.8,-201.7 -134.7,-6.1 -307.1,176.5 -437.4,211.3 -231.7,61.9 -644.3,-72.9 -685.7,256.8 168,23.9 353.2,-8.9 494.1,-69.7 -3.3,261 193.7,872.5 481.8,436.5 126.2,103.1 285.3,88.8 416.2,-12.9 96.7,106.8 238.3,142.3 376.7,118.8 -4.8,57.2 -4.9,178.5 -19.1,227.3 31.5,5 81,-7.8 109.5,7 -262.6,270.4 -97.7,1194.6 224.9,857.5 213.5,733.5 635.4,403.6 674.2,-205.8 433.2,415.1 514.8,-47 502.5,-458.9 237.8,38.1 420.7,-111.8 427.7,-349.9 60.4,-8.3 242.7,14.7 299,34.9 -56.9,314.7 302.6,820.4 555.4,432.2 12.7,143.5 95.1,264.9 224.7,329.9 132.4,-113.6 134.5,-315.9 131.8,-486.3 280.1,-17.3 678.9,-142.8 328.6,-500.3 296,251 397.5,-118.1 404.5,-385.8 105.9,82.1 244.8,111.6 372,73.3 43.8,317.8 399.9,437.1 595.4,163.5 -108.9,451.6 460.1,424.4 472.4,-43.1 157.3,192.5 354.7,113.9 388.7,-124.9 241.2,18.5 309.5,77 648.4,-92.6 18.9,-9.4 6.1,-41 -15,-42.8 -70.3,-6.1 -193.8,-2.2 -275.4,47.4"
             style="fill:url(#linearGradient7185);fill-opacity:1;fill-rule:nonzero;stroke:none"
             id="path7187" />
        </g>
      </g>
      <g
         id="g7189">
        <g
           id="g7191"
           clip-path="url(#clipPath7195)">
          <path
             d="m 5365.76,16079.2 c -134.75,-8.2 -334.42,86.4 -411.26,195.6 127.51,81.9 523.48,-163.8 403.45,161.9 84.73,62.6 195.96,113.6 216.79,-25.5 102.63,95.7 516.63,1.4 545.46,153.1 -2.62,-13.7 -647.1,408.7 -222.94,467.5 -68.24,60.2 337.32,782.6 472.29,162 55.3,140.6 378.58,52.6 281.6,261.2 -49.14,105.7 -290.49,95.5 -363.4,223.2 -73.09,127.9 -44.09,355.8 121.26,371.5 -11.72,181.8 133.8,278.1 276.15,167.5 115.67,-90 97.66,-289.7 138.35,-407.9 80.26,219.5 484.12,500.7 482.25,101.1 68.02,90.7 170.08,20.5 228.08,-75.7 33.2,49.1 83.29,114.3 127.24,165.4 -136.69,171.1 -324.76,289.7 -222.53,534.4 58.58,140.2 341.58,387.3 376.75,111.2 -34.82,162.2 216.94,318.4 363.22,266.8 142.86,-50.3 163.37,-223.7 186.03,-357.5 196.47,140.4 126,-343.5 375.48,-158.5 -171.59,252.1 -57.51,634 207.13,784.1 108.01,61.3 314.98,90 323.27,-26.1 96.64,131.4 257.16,114.7 334.99,-20.2 68.21,-118.3 7.81,-319.3 -31.69,-440.3 405.48,110.2 320.38,-618 74.87,-756.9 422.1,4.9 352,-214.8 227.02,-545 100.22,122.1 488.98,232.3 390.68,-21.9 -11.2,182 334.3,195.6 448.1,133.5 -59.8,204.7 -23.5,359.9 147.2,503.8 102.1,86 386.9,248.3 414.2,19.6 80.5,286.2 426.6,-102.3 197.1,-351.5 161,50.3 623.5,-84.9 372.7,-310.5 255.1,-8.9 540.9,167.3 792.8,72.1 108.4,229.9 453.1,150.4 631.4,83.3 121.2,155.8 400.4,126 238.4,-98.3 -90.2,-124.8 -238.6,-145.8 -372,-176.4 -204.9,-47 -408.5,-8.4 -613.4,-48.9 1.3,-4.7 1.9,-10.5 2.1,-17 3.1,-89.2 -63.8,-164.6 -151.5,-181.3 -388.7,-74 -778.5,106.5 -1103.1,-33 -441.3,-189.6 -924.9,-523.2 -1421.34,-307.5 -252.71,109.7 -172.06,108.2 -407.73,31.4 -240.53,-78.4 -371.08,-68.5 -619.6,-5.8 -77.72,19.7 -213.57,32 -283.17,59 -140.21,54.2 -253.26,283.5 -451.8,174.8 -57.49,-31.4 -83.52,-141.1 -127.95,-192.1 -89.95,-103.4 -174.47,-134 -290,-192.3 -250.95,-126.7 -344.79,-194.6 -569.73,-130.1 -165.01,47.4 -127.48,65.2 -278.63,35 -163.08,-32.5 -262.93,-184.7 -422.87,-199.6 -150.77,-14.1 -244.86,83.2 -407.26,37.8 -115.67,-32.4 -204.2,-156.8 -317.63,-186.6 -131.17,-34.5 -227.56,49.6 -350.92,20.9 -14.9,48.8 -23.48,98.8 44.09,-31.3"
             style="fill:url(#linearGradient7203);fill-opacity:1;fill-rule:nonzero;stroke:none"
             id="path7205" />
        </g>
      </g>
    </g>
  </g>
</svg>
